<?xml version="1.0" encoding="UTF-8"?>
<svg version="1.1" xmlns="http://www.w3.org/2000/svg" width="190" height="168">
<path d="M0 0 C62.7 0 125.4 0 190 0 C190 55.44 190 110.88 190 168 C127.3 168 64.6 168 0 168 C0 112.56 0 57.12 0 0 Z " fill="#F9F9F9" transform="translate(0,0)"/>
<path d="M0 0 C0.33 0 0.66 0 1 0 C1.13535156 0.71542969 1.27070312 1.43085937 1.41015625 2.16796875 C4.48003797 16.37766078 12.16172844 26.87719944 21 38 C27.98425397 46.99975011 36.3668186 58.89607343 35.36328125 70.80078125 C35.24339844 71.52652344 35.12351562 72.25226563 35 73 C34.83564453 74.04220703 34.83564453 74.04220703 34.66796875 75.10546875 C32.94055217 83.4519582 28.76176819 89.85411393 23 96 C24.71295785 95.1130414 26.42014551 94.21493631 28.125 93.3125 C29.55199219 92.56419922 29.55199219 92.56419922 31.0078125 91.80078125 C43.91195332 84.03471216 48.41614834 71.28530548 51.9921875 57.421875 C53 54 53 54 55 52 C49.0654602 53.16767565 43.62257105 54.77035976 38 57 C36.515 57.495 36.515 57.495 35 58 C32.39997543 54.66871852 31.0657097 52.55383892 30.5625 48.3125 C31 45 31 45 32.11425781 43.31835938 C34.91601596 41.35959527 37.21915207 41.6138375 40.609375 41.59375 C42.57777344 41.56087891 42.57777344 41.56087891 44.5859375 41.52734375 C45.97394634 41.51655612 47.36196926 41.50745556 48.75 41.5 C51.45404154 41.48532493 54.1553951 41.45122814 56.859375 41.40625 C58.66100098 41.39561523 58.66100098 41.39561523 60.49902344 41.38476562 C64.61175846 40.9327663 67.27507412 39.76650597 71 38 C71.99 37.67 72.98 37.34 74 37 C72.46389352 40.41269017 70.42267448 43.11887552 68.125 46.0625 C62.95015024 53.12167006 60.36588354 59.92507013 59.1875 68.5625 C57.67031523 78.03135853 50.62388653 85.42699677 43.25 91.125 C40.74947545 92.87431597 40.74947545 92.87431597 40 96 C43.70770024 95.39642089 46.69174949 94.32966051 50.0625 92.6875 C60.37572873 87.92436223 69.59872225 85.36778315 81 85 C71.07209369 96.91348758 61.65785083 104.58029045 47 110 C46.17757812 110.36351563 45.35515625 110.72703125 44.5078125 111.1015625 C41.87481579 112.04484792 39.96679673 112.20796408 37.1875 112.125 C36.39730469 112.10695313 35.60710937 112.08890625 34.79296875 112.0703125 C34.20128906 112.04710938 33.60960937 112.02390625 33 112 C33 112.99 33 113.98 33 115 C33.804375 115.12375 34.60875 115.2475 35.4375 115.375 C39 116 39 116 42.75 117.0625 C50.29437137 118.82155032 58.30639874 118.14939032 66 118 C63.15875829 121.12669357 60.61883511 122.88784709 56.75 124.5625 C55.85796875 124.95566406 54.9659375 125.34882813 54.046875 125.75390625 C52.53867187 126.37072266 52.53867187 126.37072266 51 127 C50.40606445 127.26401611 49.81212891 127.52803223 49.20019531 127.80004883 C43.85630005 130.03915967 39.01867892 130.57911167 33.25 130.5625 C32.37327637 130.56008301 31.49655273 130.55766602 30.59326172 130.55517578 C21.18157522 130.28964231 14.03813708 127.19416491 7.25 120.625 C6.5075 119.75875 5.765 118.8925 5 118 C4.93683594 118.82242188 4.87367187 119.64484375 4.80859375 120.4921875 C3.86916159 129.05585328 1.54831423 134.4280663 -4 141 C-6.76836966 139.97292895 -7.86246529 139.22020382 -9.44921875 136.6796875 C-11.94788268 131.02025312 -13.64950227 126.19212662 -14 120 C-14.94875 120.9075 -15.8975 121.815 -16.875 122.75 C-26.19591567 130.52356999 -36.12093609 130.98780231 -47.82373047 130.22753906 C-56.69029255 129.30049892 -64.42931198 124.39304914 -72 120 C-72 119.34 -72 118.68 -72 118 C-70.83984375 118.03480469 -69.6796875 118.06960937 -68.484375 118.10546875 C-57.18728178 118.34049675 -47.55572987 117.35873944 -37 113 C-38.08796875 112.84144531 -39.1759375 112.68289062 -40.296875 112.51953125 C-57.42221865 109.86831924 -69.75172426 103.8045687 -82.625 92.1875 C-83.15867187 91.70716309 -83.69234375 91.22682617 -84.2421875 90.73193359 C-85.53665093 89.53157425 -86.77401577 88.27022077 -88 87 C-88 86.34 -88 85.68 -88 85 C-73.96484256 85.66834083 -61.00699938 90.66303315 -48.33227539 96.40844727 C-42.90317373 98.83281754 -42.90317373 98.83281754 -37 99 C-38.0621875 98.5153125 -39.124375 98.030625 -40.21875 97.53125 C-48.36454055 93.70869817 -55.28841109 90.18505732 -61 83 C-62.11375 81.6696875 -62.11375 81.6696875 -63.25 80.3125 C-66.51335083 74.13544307 -68.10265669 67.29905629 -69.9296875 60.58203125 C-72.62818235 51.07039443 -76.88568164 44.63348165 -83 37 C-50.18947321 38.01317597 -50.18947321 38.01317597 -38.671875 48.0234375 C-37 50 -37 50 -36.75 53.25 C-36.8325 54.1575 -36.915 55.065 -37 56 C-41.15758536 55.30183944 -44.92362246 54.01940835 -48.875 52.5625 C-53.55117129 50.84105233 -58.19956353 49.3198131 -63 48 C-62.32812374 50.01562879 -61.65403261 52.03053158 -60.97265625 54.04296875 C-60.26235186 56.2024082 -59.58746939 58.37359093 -58.93359375 60.55078125 C-55.384952 72.18377578 -50.51753186 83.11392865 -40 90 C-35.74518659 92.20076556 -31.42170094 94.15987141 -27 96 C-28.82779776 92.94123641 -30.67290645 89.89598029 -32.5625 86.875 C-32.97628906 86.21242188 -33.39007813 85.54984375 -33.81640625 84.8671875 C-34.85432931 83.22980392 -35.92463827 81.61304259 -37 80 C-40.22410808 67.42597847 -37.31345601 54.87030452 -31.75390625 43.4375 C-27.97346607 37.33494969 -22.71192685 32.2635781 -17.82421875 27.046875 C-10.27767297 18.95198132 -5.27601629 9.66097206 0 0 Z " fill="#F1F2F4" transform="translate(98,6)"/>
<path d="M0 0 C0.33 0 0.66 0 1 0 C1.13535156 0.71542969 1.27070312 1.43085937 1.41015625 2.16796875 C4.48003797 16.37766078 12.16172844 26.87719944 21 38 C27.98425397 46.99975011 36.3668186 58.89607343 35.36328125 70.80078125 C35.24339844 71.52652344 35.12351562 72.25226563 35 73 C34.83564453 74.04220703 34.83564453 74.04220703 34.66796875 75.10546875 C32.94055217 83.4519582 28.76176819 89.85411393 23 96 C24.71295785 95.1130414 26.42014551 94.21493631 28.125 93.3125 C29.55199219 92.56419922 29.55199219 92.56419922 31.0078125 91.80078125 C43.91195332 84.03471216 48.41614834 71.28530548 51.9921875 57.421875 C53 54 53 54 55 52 C49.0654602 53.16767565 43.62257105 54.77035976 38 57 C36.515 57.495 36.515 57.495 35 58 C32.39997543 54.66871852 31.0657097 52.55383892 30.5625 48.3125 C31 45 31 45 32.11425781 43.31835938 C34.91601596 41.35959527 37.21915207 41.6138375 40.609375 41.59375 C42.57777344 41.56087891 42.57777344 41.56087891 44.5859375 41.52734375 C45.97394634 41.51655612 47.36196926 41.50745556 48.75 41.5 C51.45404154 41.48532493 54.1553951 41.45122814 56.859375 41.40625 C58.66100098 41.39561523 58.66100098 41.39561523 60.49902344 41.38476562 C64.61175846 40.9327663 67.27507412 39.76650597 71 38 C71.99 37.67 72.98 37.34 74 37 C72.46389352 40.41269017 70.42267448 43.11887552 68.125 46.0625 C62.95015024 53.12167006 60.36588354 59.92507013 59.1875 68.5625 C57.6818848 77.95915202 50.67008976 85.57526751 43.1875 91.0625 C42.465625 91.701875 41.74375 92.34125 41 93 C41 94.32 41 95.64 41 97 C29.3960713 104.73595247 16.36338848 103.44159647 3 103 C3 102.34 3 101.68 3 101 C4.28913487 100.32845067 5.58140204 99.66291141 6.875 99 C7.59429687 98.62875 8.31359375 98.2575 9.0546875 97.875 C11 97 11 97 13 97 C13.268125 96.443125 13.53625 95.88625 13.8125 95.3125 C15 93 15 93 16.5625 90.5 C20.52919206 83.60140511 20.15808136 73.82419691 18.33984375 66.25 C15.55602011 59.81439249 10.61995299 55.49529595 5.60986328 50.77416992 C1.20934422 46.5254148 -0.85882819 43.12083061 -2 37 C-2.66 37 -3.32 37 -4 37 C-4.2678833 37.59820557 -4.5357666 38.19641113 -4.81176758 38.81274414 C-6.01495447 41.02752765 -7.1583165 42.31238302 -9.01171875 43.99609375 C-18.79881533 53.14327506 -27.11088531 61.46383822 -27.8125 75.625 C-27.4210375 83.6791328 -24.76212883 90.49801838 -18.796875 96.05078125 C-17 98 -17 98 -17 102 C-14.03 102.33 -11.06 102.66 -8 103 C-8.33 103.66 -8.66 104.32 -9 105 C-19.03057937 104.62658947 -28.27518586 103.64768056 -38 101 C-37.67 100.34 -37.34 99.68 -37 99 C-38.0621875 98.5153125 -39.124375 98.030625 -40.21875 97.53125 C-48.36454055 93.70869817 -55.28841109 90.18505732 -61 83 C-62.11375 81.6696875 -62.11375 81.6696875 -63.25 80.3125 C-66.51335083 74.13544307 -68.10265669 67.29905629 -69.9296875 60.58203125 C-72.62818235 51.07039443 -76.88568164 44.63348165 -83 37 C-50.18947321 38.01317597 -50.18947321 38.01317597 -38.671875 48.0234375 C-37 50 -37 50 -36.75 53.25 C-36.8325 54.1575 -36.915 55.065 -37 56 C-41.15758536 55.30183944 -44.92362246 54.01940835 -48.875 52.5625 C-53.55117129 50.84105233 -58.19956353 49.3198131 -63 48 C-62.32812374 50.01562879 -61.65403261 52.03053158 -60.97265625 54.04296875 C-60.26235186 56.2024082 -59.58746939 58.37359093 -58.93359375 60.55078125 C-55.384952 72.18377578 -50.51753186 83.11392865 -40 90 C-35.74518659 92.20076556 -31.42170094 94.15987141 -27 96 C-28.82779776 92.94123641 -30.67290645 89.89598029 -32.5625 86.875 C-32.97628906 86.21242188 -33.39007813 85.54984375 -33.81640625 84.8671875 C-34.85432931 83.22980392 -35.92463827 81.61304259 -37 80 C-40.22410808 67.42597847 -37.31345601 54.87030452 -31.75390625 43.4375 C-27.97346607 37.33494969 -22.71192685 32.2635781 -17.82421875 27.046875 C-10.27767297 18.95198132 -5.27601629 9.66097206 0 0 Z " fill="#E9EDF0" transform="translate(98,6)"/>
<path d="M0 0 C0.33 0 0.66 0 1 0 C1.20302734 1.07314453 1.20302734 1.07314453 1.41015625 2.16796875 C4.48003797 16.37766078 12.16172844 26.87719944 21 38 C27.98425397 46.99975011 36.3668186 58.89607343 35.36328125 70.80078125 C35.24339844 71.52652344 35.12351562 72.25226563 35 73 C34.83564453 74.04220703 34.83564453 74.04220703 34.66796875 75.10546875 C33.03947963 82.97396291 29.11031321 90.6804332 23 96 C20.30859375 97.1953125 20.30859375 97.1953125 18 98 C18.39832031 97.41992188 18.79664063 96.83984375 19.20703125 96.2421875 C19.73683594 95.46101563 20.26664063 94.67984375 20.8125 93.875 C21.33457031 93.10929687 21.85664062 92.34359375 22.39453125 91.5546875 C25.95904282 85.88269099 27.53427612 81.54600092 27.4375 74.8125 C27.42847656 74.06145996 27.41945313 73.31041992 27.41015625 72.53662109 C26.96081932 57.99869927 19.10089497 47.69834813 8.890625 37.91015625 C4.81932701 33.7967994 1.47601274 29.22970916 -1 24 C-1.53173828 24.80050781 -1.53173828 24.80050781 -2.07421875 25.6171875 C-5.65710708 30.6314961 -9.51943433 34.33884592 -14.5 37.9375 C-24.44739921 45.26173529 -29.7458407 53.79552807 -32 66 C-32.9438682 74.51546738 -33.16427906 82.77698807 -28 90 C-27.42765625 90.89332031 -27.42765625 90.89332031 -26.84375 91.8046875 C-25.92786465 93.2243098 -24.96882444 94.61596508 -24 96 C-29.49263156 94.16912281 -32.37683002 88.17492756 -35.3125 83.375 C-37.03523492 79.92953016 -37.71181108 77.81850315 -38 74 C-38.07476562 73.18144531 -38.14953125 72.36289063 -38.2265625 71.51953125 C-38.90043736 58.37897156 -34.42537368 45.30799716 -25.65673828 35.49707031 C-23.07232478 32.65548026 -20.45039279 29.84981862 -17.82421875 27.046875 C-10.27767297 18.95198132 -5.27601629 9.66097206 0 0 Z " fill="#0E0E0E" transform="translate(98,6)"/>
<path d="M0 0 C3.25158448 3.18348847 6.25811773 6.45851505 9.1875 9.9375 C18.71964061 20.57987329 29.1699391 23.13704054 43 24 C43 24.33 43 24.66 43 25 C31.34946242 25.79838709 22.32870148 25.13951596 12.9296875 17.265625 C11.25 15.625 11.25 15.625 9 13 C8.93683594 13.82242188 8.87367187 14.64484375 8.80859375 15.4921875 C7.86916159 24.05585328 5.54831423 29.4280663 0 36 C-2.76836966 34.97292895 -3.86246529 34.22020382 -5.44921875 31.6796875 C-7.94788268 26.02025312 -9.64950227 21.19212662 -10 15 C-10.94875 15.9075 -11.8975 16.815 -12.875 17.75 C-22.19591567 25.52356999 -32.12093609 25.98780231 -43.82373047 25.22753906 C-52.69029255 24.30049892 -60.42931198 19.39304914 -68 15 C-68 14.34 -68 13.68 -68 13 C-66.83984375 13.03480469 -65.6796875 13.06960937 -64.484375 13.10546875 C-53.67894224 13.33149958 -44.40535543 12.50120914 -34.2421875 8.53515625 C-29.82585716 6.86249327 -25.35642482 5.76341346 -20.75 4.75 C-19.96109375 4.564375 -19.1721875 4.37875 -18.359375 4.1875 C-17.59625 4.01734375 -16.833125 3.8471875 -16.046875 3.671875 C-15.36463867 3.5181543 -14.68240234 3.36443359 -13.97949219 3.20605469 C-11.74965824 2.97394074 -10.12824957 3.33975489 -8 4 C-8.76183594 4.42410156 -9.52367187 4.84820312 -10.30859375 5.28515625 C-15.3605184 8.15485128 -20.18613489 11.00021156 -24.6875 14.6875 C-30.24146486 19.17300701 -35.98306904 21.74872909 -43 23 C-32.43121289 23.49030456 -23.59465425 22.64132374 -15 16 C-14.071875 15.319375 -13.14375 14.63875 -12.1875 13.9375 C-7.46295545 9.95628379 -3.8066796 4.83025344 0 0 Z " fill="#070707" transform="translate(94,111)"/>
<path d="M0 0 C32.81052679 1.01317597 32.81052679 1.01317597 44.328125 11.0234375 C46 13 46 13 46.25 16.25 C46.1675 17.1575 46.085 18.065 46 19 C41.84241464 18.30183944 38.07637754 17.01940835 34.125 15.5625 C29.44882871 13.84105233 24.80043647 12.3198131 20 11 C20.67187626 13.01562879 21.34596739 15.03053158 22.02734375 17.04296875 C22.73764814 19.2024082 23.41253061 21.37359093 24.06640625 23.55078125 C27.58481529 35.08466831 32.43127214 46.33357166 43 53 C47.12407937 55.12941462 51.32192713 57.09309809 55.56152344 58.98095703 C56.37524414 59.34431152 57.18896484 59.70766602 58.02734375 60.08203125 C58.76718506 60.40405518 59.50702637 60.7260791 60.26928711 61.05786133 C62 62 62 62 63 64 C49.69635045 64.90194234 37.02531171 59.66361622 26.8359375 51.203125 C18.57033585 43.2540783 16.01820472 34.41987029 13.0703125 23.58203125 C10.37181765 14.07039443 6.11431836 7.63348165 0 0 Z " fill="#40B8FE" transform="translate(15,43)"/>
<path d="M0 0 C0.66 0 1.32 0 2 0 C0.46389352 3.41269017 -1.57732552 6.11887552 -3.875 9.0625 C-9.04984976 16.12167006 -11.63411646 22.92507013 -12.8125 31.5625 C-14.52208151 42.23212031 -23.24273363 50.33253896 -31.609375 56.51171875 C-38.04823196 60.52022284 -46.03145727 64.17345714 -53.6875 64.0625 C-54.49574219 64.05347656 -55.30398437 64.04445313 -56.13671875 64.03515625 C-56.75160156 64.02355469 -57.36648437 64.01195313 -58 64 C-55.5937951 60.39069264 -54.20613835 60.47874431 -50.15283203 59.5859375 C-46.70788937 58.64832553 -43.90940387 56.93905233 -40.9375 55 C-40.33115723 54.60627197 -39.72481445 54.21254395 -39.10009766 53.80688477 C-33.65576318 50.08578395 -30.19054831 45.77517646 -27 40 C-26.61714844 39.37867188 -26.23429687 38.75734375 -25.83984375 38.1171875 C-22.99822466 33.12544597 -21.71409827 27.65125618 -20.39379883 22.1027832 C-19.20117716 17.20117716 -19.20117716 17.20117716 -17 15 C-22.9345398 16.16767565 -28.37742895 17.77035976 -34 20 C-34.99 20.33 -35.98 20.66 -37 21 C-39.60002457 17.66871852 -40.9342903 15.55383892 -41.4375 11.3125 C-41 8 -41 8 -39.88574219 6.31835938 C-37.08398404 4.35959527 -34.78084793 4.6138375 -31.390625 4.59375 C-29.42222656 4.56087891 -29.42222656 4.56087891 -27.4140625 4.52734375 C-26.02605366 4.51655612 -24.63803074 4.50745556 -23.25 4.5 C-20.54595846 4.48532493 -17.8446049 4.45122814 -15.140625 4.40625 C-13.33899902 4.39561523 -13.33899902 4.39561523 -11.50097656 4.38476562 C-7.49583182 3.94459072 -2.96886755 2.96886755 0 0 Z " fill="#42B9FE" transform="translate(170,43)"/>
<path d="M0 0 C2.22967934 2.22967934 3.34161305 4.33846483 4.8125 7.125 C7.05731784 11.31752744 9.41525333 15.3656944 12.01953125 19.34375 C14.85794878 24.13852703 14.54640061 29.62064752 14 35 C12.1942807 38.88924158 10.73252453 40.51165031 7.1875 42.875 C2.64112263 44.47960378 -1.03007751 44.50393366 -5.6875 43.3125 C-9.17366772 41.33386426 -11.22280182 38.55439636 -13 35 C-14.13066072 26.23737945 -10.68855946 21.20929035 -6 14 C-3.16880237 9.43049865 -1.27709864 5.21481947 0 0 Z " fill="#FE6263" transform="translate(94,56)"/>
<path d="M0 0 C12.92363226 0.61541106 24.7656097 4.89908101 36.5 10.0625 C50.41459362 16.13283327 63.87450304 18.59285338 79 19 C72.32315797 25.67684203 54.86851927 26.33033024 45.6875 26.5 C39.72396915 26.26225126 34.52977349 25.21572962 29 23 C28.24332031 22.7215625 27.48664062 22.443125 26.70703125 22.15625 C20.6587605 19.74110574 15.92885412 16.20715834 11 12 C10.09121094 11.22527344 9.18242187 10.45054688 8.24609375 9.65234375 C1.14742303 3.44226908 1.14742303 3.44226908 0 0 Z " fill="#090909" transform="translate(10,91)"/>
<path d="M0 0 C-10.28891028 12.34669234 -21.63730508 22.79925346 -38 26 C-51.49598979 27.19736285 -63.96569438 24.2208852 -77 21 C-77 20.34 -77 19.68 -77 19 C-76.42258057 18.97083496 -75.84516113 18.94166992 -75.25024414 18.91162109 C-57.60783472 17.9226537 -43.93401882 13.94552959 -28.0625 6.38671875 C-18.96441058 2.26704816 -10.03880489 -0.31371265 0 0 Z " fill="#0A0A0A" transform="translate(179,91)"/>
<path d="M0 0 C0.66 0 1.32 0 2 0 C2.22171875 0.58265625 2.4434375 1.1653125 2.671875 1.765625 C5.23462604 7.67109479 8.38045539 11.65058368 13 16 C20.51572407 23.21322303 24.20226754 28.87473144 24.5 39.625 C24.21233377 47.55180278 22.98183981 54.32492121 17 60 C8.53396778 65.24356921 8.53396778 65.24356921 4.6875 64.6328125 C4.130625 64.42398438 3.57375 64.21515625 3 64 C3.53109375 63.72027344 4.0621875 63.44054687 4.609375 63.15234375 C9.9410747 60.12650688 12.3897403 57.54680186 15 52 C15.66 52 16.32 52 17 52 C17.55538139 36.83500259 16.94006289 28.34640222 6.97265625 16.44140625 C4.301076 13.13499505 2.16509101 9.65359108 0 6 C-11.24110743 17.87410183 -17.01222607 26.1255429 -17.375 42.6875 C-17.40118408 43.41251709 -17.42736816 44.13753418 -17.4543457 44.88452148 C-17.47032763 50.04194742 -16.34594498 52.88663645 -13 57 C-9.89775125 59.78406939 -6.61434617 61.93465933 -3 64 C-5.34455523 64.82840952 -6.56063545 65.16276055 -8.9296875 64.28515625 C-16.14400566 59.75085588 -20.63686352 53.81857369 -24 46 C-25.52349151 36.36226024 -24.22182534 27.83397648 -18.44042969 19.78320312 C-13.66274482 13.86859121 -8.02900415 8.65836883 -2.47119141 3.48950195 C-0.89415687 2.04694261 -0.89415687 2.04694261 0 0 Z " fill="#46BBFE" transform="translate(94,43)"/>
<path d="M0 0 C0.33 0 0.66 0 1 0 C1.28875 1.051875 1.5775 2.10375 1.875 3.1875 C2.77225193 6.22818711 3.76423419 9.08712344 5 12 C6.423125 11.1028125 6.423125 11.1028125 7.875 10.1875 C12.6163385 7.48368171 18.76413092 4.40117194 24.30078125 5.42578125 C24.86152344 5.61527344 25.42226562 5.80476563 26 6 C25.54238281 6.68835937 25.08476562 7.37671875 24.61328125 8.0859375 C22.85822002 11.25609652 22.05569574 14.11257342 21.1875 17.625 C19.32284929 24.39587996 16.79451161 30.10064481 13 36 C12.60683594 36.63292969 12.21367187 37.26585937 11.80859375 37.91796875 C7.08468801 44.38927537 -0.95157143 48.49264798 -8 52 C-8.66 51.67 -9.32 51.34 -10 51 C-9.113125 50.360625 -8.22625 49.72125 -7.3125 49.0625 C-3.31305509 45.75326662 -1.26665152 41.59079058 1 37 C1.36351562 36.30261719 1.72703125 35.60523438 2.1015625 34.88671875 C3.36226515 32.23924317 3.67516197 29.92354228 4 27 C4.13341797 25.95199219 4.13341797 25.95199219 4.26953125 24.8828125 C4.84366924 16.73806422 1.45818102 10.14279056 -2 3 C-1.34 3 -0.68 3 0 3 C0 2.01 0 1.02 0 0 Z " fill="#EFF4F6" transform="translate(128,52)"/>
<path d="M0 0 C5.4885196 0.60778908 10.76057181 1.51391548 16.125 2.8125 C16.85420654 2.98628174 17.58341309 3.16006348 18.3347168 3.33911133 C24.32063199 4.78730613 30.23614211 6.42939234 36.14453125 8.16796875 C39.99562553 9.29010703 43.29938858 10.12643294 47.328125 10.09765625 C48.12734375 10.09443359 48.9265625 10.09121094 49.75 10.08789062 C50.575 10.07951172 51.4 10.07113281 52.25 10.0625 C53.09046875 10.05798828 53.9309375 10.05347656 54.796875 10.04882812 C56.86461401 10.03707961 58.93231624 10.01914522 61 10 C58.11386072 13.1917305 55.50579705 14.92954635 51.5625 16.625 C50.17224609 17.23214844 50.17224609 17.23214844 48.75390625 17.8515625 C47.84511719 18.23054688 46.93632812 18.60953125 46 19 C45.11441406 19.37382812 44.22882813 19.74765625 43.31640625 20.1328125 C40.67205723 21.12277115 38.80222424 21.29497097 36 21 C35.01 20.34 34.02 19.68 33 19 C31.3809319 18.63895346 29.75470742 18.30949933 28.125 18 C22.16917722 16.47953201 18.37351271 13.52684852 13.72631836 9.70751953 C9.3528469 6.14365741 5.26216679 3.96216389 0 2 C0 1.34 0 0.68 0 0 Z " fill="#0B0B0B" transform="translate(103,114)"/>
<path d="M0 0 C-0.76183594 0.42410156 -1.52367187 0.84820312 -2.30859375 1.28515625 C-8.19943499 4.63138941 -13.67352476 8.06327176 -18.8671875 12.421875 C-24.55013122 16.62683702 -29.66356149 17.72367128 -36.5625 18.125 C-37.88072754 18.2022229 -37.88072754 18.2022229 -39.22558594 18.28100586 C-47.69443028 18.49249456 -53.217726 15.96294138 -60 11 C-60 10.34 -60 9.68 -60 9 C-58.83984375 9.03480469 -57.6796875 9.06960937 -56.484375 9.10546875 C-45.67894224 9.33149958 -36.40535543 8.50120914 -26.2421875 4.53515625 C-21.82585716 2.86249327 -17.35642482 1.76341346 -12.75 0.75 C-11.96109375 0.564375 -11.1721875 0.37875 -10.359375 0.1875 C-9.59625 0.01734375 -8.833125 -0.1528125 -8.046875 -0.328125 C-7.36463867 -0.4818457 -6.68240234 -0.63556641 -5.97949219 -0.79394531 C-3.74965824 -1.02605926 -2.12824957 -0.66024511 0 0 Z " fill="#080808" transform="translate(86,115)"/>
<path d="M0 0 C3.10961528 1.28800633 3.81391185 2.18109685 6 5 C7.07270505 9.63442102 6.64350123 12.93489452 4.1875 17 C0.79691645 20.0999621 -2.46996641 20.39271664 -6.99609375 20.359375 C-10.39129975 19.75048815 -11.94677524 17.61319515 -14 15 C-15.57455739 11.85088521 -15.34799118 9.47991184 -15 6 C-11.42006583 -0.56321265 -7.21544735 -1.49602577 0 0 Z " fill="#FAF6F6" transform="translate(99,78)"/>
<path d="M0 0 C0.66 0 1.32 0 2 0 C2.93065133 2.60582371 3.14917407 3.64198224 2.0625 6.25 C1.5365625 7.11625 1.5365625 7.11625 1 8 C0.67 7.34 0.34 6.68 0 6 C-11.24110743 17.87410183 -17.01222607 26.1255429 -17.375 42.6875 C-17.40118408 43.41251709 -17.42736816 44.13753418 -17.4543457 44.88452148 C-17.47032763 50.04194742 -16.34594498 52.88663645 -13 57 C-9.89775125 59.78406939 -6.61434617 61.93465933 -3 64 C-5.34455523 64.82840952 -6.56063545 65.16276055 -8.9296875 64.28515625 C-16.14400566 59.75085588 -20.63686352 53.81857369 -24 46 C-25.52349151 36.36226024 -24.22182534 27.83397648 -18.44042969 19.78320312 C-13.66274482 13.86859121 -8.02900415 8.65836883 -2.47119141 3.48950195 C-0.89415687 2.04694261 -0.89415687 2.04694261 0 0 Z " fill="#4BBCFD" transform="translate(94,43)"/>
<path d="M0 0 C1 2.4375 1 2.4375 1 6 C-4.55396046 14.70327323 -13.39015533 20.90889303 -23.3046875 23.53515625 C-29.33096962 24.57447157 -35.78455507 25.47696329 -41 22 C-40.34515625 21.93683594 -39.6903125 21.87367188 -39.015625 21.80859375 C-27.90235004 20.31740573 -19.48134693 14.59219385 -11.03515625 7.48046875 C-8.79143643 5.84828101 -6.60491648 4.92870935 -4 4 C-5.79202867 4.28943418 -7.58360035 4.58169779 -9.375 4.875 C-10.47328125 5.05417969 -11.5715625 5.23335938 -12.703125 5.41796875 C-15.5424467 5.91922341 -18.31919279 6.53072666 -21.125 7.1875 C-26.22351224 8.25520792 -30.88847451 7.80479338 -36 7 C-36 6.67 -36 6.34 -36 6 C-34.58074219 5.85304688 -34.58074219 5.85304688 -33.1328125 5.703125 C-23.77670322 4.66727859 -14.73126241 2.95996546 -5.5703125 0.8046875 C-2 0 -2 0 0 0 Z " fill="#E9E9E9" transform="translate(89,111)"/>
<path d="M0 0 C3.4083948 -0.08520987 5.44840862 0.52554687 8.0390625 2.75390625 C16.84812115 12.23931585 18.55636249 19.80405455 18.23828125 32.40234375 C18 36 18 36 17 38 C16.34 38 15.68 38 15 38 C14.98582031 37.17757812 14.97164062 36.35515625 14.95703125 35.5078125 C14.47346478 24.18974329 10.64821621 17.01847198 4.234375 7.91015625 C3 6 3 6 2 3 C1.34 3.66 0.68 4.32 0 5 C0 3.35 0 1.7 0 0 Z " fill="#F3F0F2" transform="translate(93,55)"/>
<path d="M0 0 C0 3.63 0 7.26 0 11 C-0.33 11 -0.66 11 -1 11 C-1.495 7.04 -1.495 7.04 -2 3 C-2.94875 3.9075 -3.8975 4.815 -4.875 5.75 C-14.24742102 13.56652504 -24.06485061 13.77495205 -35.80224609 13.22949219 C-39.04009654 12.89139183 -41.91704524 12.0317787 -45 11 C-41.65060119 8.97441119 -39.13037449 8.78261013 -35.25 8.875 C-34.26515625 8.89304688 -33.2803125 8.91109375 -32.265625 8.9296875 C-31.14414062 8.96449219 -31.14414062 8.96449219 -30 9 C-30 9.33 -30 9.66 -30 10 C-31.65 10.33 -33.3 10.66 -35 11 C-22.58043097 11.57616557 -13.98738042 9.71694761 -4.25 1.75 C-2 0 -2 0 0 0 Z " fill="#5B5B5B" transform="translate(86,123)"/>
<path d="M0 0 C0.66 0 1.32 0 2 0 C2.93065133 2.60582371 3.14917407 3.64198224 2.0625 6.25 C1.5365625 7.11625 1.5365625 7.11625 1 8 C0.67 7.34 0.34 6.68 0 6 C-0.69867188 6.77085938 -1.39734375 7.54171875 -2.1171875 8.3359375 C-3.03643189 9.34898233 -3.95570418 10.36200185 -4.875 11.375 C-5.33519531 11.88289063 -5.79539062 12.39078125 -6.26953125 12.9140625 C-8.14601858 14.98091811 -10.02570548 17.02570548 -12 19 C-12.66 19 -13.32 19 -14 19 C-14.99 19.33 -15.98 19.66 -17 20 C-15.64937713 16.97503419 -14.14970763 14.9194306 -11.77734375 12.6171875 C-11.15666016 12.00746094 -10.53597656 11.39773437 -9.89648438 10.76953125 C-9.25001953 10.14433594 -8.60355469 9.51914062 -7.9375 8.875 C-6.6527607 7.62463926 -5.37010319 6.37213484 -4.08984375 5.1171875 C-3.52128662 4.56659668 -2.95272949 4.01600586 -2.36694336 3.44873047 C-0.89270095 2.02585988 -0.89270095 2.02585988 0 0 Z " fill="#4EBDFE" transform="translate(94,43)"/>
<path d="M0 0 C2.20793867 2.50902122 3.05790269 4.21617005 3.9375 7.5 C5.08672129 11.28567013 5.70570512 12.83270074 9 15 C13.21712934 15.46856993 15.8772334 15.36611955 19.875 14.0625 C23.08908862 10.9429434 23.39246105 7.32531461 24 3 C24.33 3 24.66 3 25 3 C26.4611697 10.18408437 26.4611697 10.18408437 24.375 13.875 C20.78390143 17.08808819 18.29783491 17.90729751 13.5 18.25 C8.5566492 17.89690351 6.10081925 17.2231325 2.75 13.5 C0.37191885 10.10274121 -0.12094462 8.46612338 -0.0625 4.375 C-0.05347656 3.55773437 -0.04445313 2.74046875 -0.03515625 1.8984375 C-0.02355469 1.27195312 -0.01195313 0.64546875 0 0 Z " fill="#FC7A7A" transform="translate(81,82)"/>
<path d="M0 0 C0.33 1.32 0.66 2.64 1 4 C-9.13361101 7.78321478 -18.128163 10.89915653 -29 8 C-28.67 7.34 -28.34 6.68 -28 6 C-27.03513672 6.08701172 -27.03513672 6.08701172 -26.05078125 6.17578125 C-16.32948261 6.66115279 -8.77362076 0 0 0 Z " fill="#C3D4DD" transform="translate(138,100)"/>
<path d="M0 0 C1.07894531 0.19078125 2.15789062 0.3815625 3.26953125 0.578125 C5.76934094 1.06865369 8.21857685 1.62924218 10.6875 2.25 C17.11680151 3.76207647 23.8008278 3.85835831 30.375 4.1875 C30.375 4.5175 30.375 4.8475 30.375 5.1875 C27.405 5.1875 24.435 5.1875 21.375 5.1875 C21.375 5.8475 21.375 6.5075 21.375 7.1875 C16.84069897 6.29944565 12.31343551 5.39798061 7.8046875 4.38671875 C5.98324219 3.97873047 5.98324219 3.97873047 4.125 3.5625 C2.41570312 3.17191406 2.41570312 3.17191406 0.671875 2.7734375 C-2.50752299 2.20837862 -5.40440226 2.08014674 -8.625 2.1875 C-8.625 1.5275 -8.625 0.8675 -8.625 0.1875 C-5.1823286 -0.96005713 -3.53661619 -0.63512875 0 0 Z " fill="#A6A6A6" transform="translate(109.625,112.8125)"/>
<path d="M0 0 C0 1.32 0 2.64 0 4 C-0.96292969 3.95746094 -1.92585938 3.91492188 -2.91796875 3.87109375 C-7.55453606 3.86992849 -11.82738926 4.98295833 -16.3125 6.0625 C-23.24424927 7.64346047 -28.92674779 8.39145945 -36 7 C-36 6.67 -36 6.34 -36 6 C-34.58074219 5.85304688 -34.58074219 5.85304688 -33.1328125 5.703125 C-23.77670322 4.66727859 -14.73126241 2.95996546 -5.5703125 0.8046875 C-2 0 -2 0 0 0 Z " fill="#A7A7A7" transform="translate(89,111)"/>
<path d="M0 0 C0.99 1.051875 0.99 1.051875 2 2.125 C9.55882401 9.66241091 17.20083177 14.20149632 27.875 15.1875 C28.65875 15.26935547 29.4425 15.35121094 30.25 15.43554688 C32.16561529 15.63411675 34.08269042 15.81851747 36 16 C36 16.33 36 16.66 36 17 C21.73772844 17.97736379 12.39844175 15.29621176 1.328125 5.7109375 C0 4 0 4 0 0 Z " fill="#4B4B4B" transform="translate(101,119)"/>
<path d="M0 0 C2 1 2 1 3.3125 3.3125 C6.18771853 7.89155173 10.37623819 10.35785039 15 13 C12.57210036 13.87794585 11.43028124 14.17648254 9 13.1796875 C4.98850579 10.56281433 1.486253 8.2158203 -1 4 C-0.75 1.6875 -0.75 1.6875 0 0 Z " fill="#61C3FC" transform="translate(76,94)"/>
<path d="M0 0 C0.98484375 0.01804688 1.9696875 0.03609375 2.984375 0.0546875 C4.10585938 0.08949219 4.10585938 0.08949219 5.25 0.125 C5.25 0.455 5.25 0.785 5.25 1.125 C3.6 1.455 1.95 1.785 0.25 2.125 C7.18 2.62 7.18 2.62 14.25 3.125 C14.25 3.455 14.25 3.785 14.25 4.125 C11.56222198 4.1794207 8.87556788 4.21887266 6.1875 4.25 C5.43533203 4.26675781 4.68316406 4.28351563 3.90820312 4.30078125 C-1.04327709 4.34365121 -5.05414451 3.70899375 -9.75 2.125 C-6.40060119 0.09941119 -3.88037449 -0.09238987 0 0 Z " fill="#474747" transform="translate(50.75,131.875)"/>
<path d="M0 0 C0.33 0 0.66 0 1 0 C1.02578125 0.7734375 1.0515625 1.546875 1.078125 2.34375 C1.44938838 9.16149567 2.31913815 14.22861383 6 20 C6.38027344 20.60070312 6.76054688 21.20140625 7.15234375 21.8203125 C8.07457255 23.2315523 9.03322621 24.61889458 10 26 C4.6947424 24.2315808 2.02871476 19.0127028 -0.4375 14.1875 C-1.28474168 9.38646382 -0.63289275 4.80656384 0 0 Z " fill="#585858" transform="translate(64,76)"/>
<path d="M0 0 C0.33 0 0.66 0 1 0 C1.28875 1.051875 1.5775 2.10375 1.875 3.1875 C2.77546655 6.23908108 3.64690233 9.12466745 5 12 C5.66 12.33 6.32 12.66 7 13 C5.68 13.33 4.36 13.66 3 14 C1.35 10.37 -0.3 6.74 -2 3 C-1.34 3 -0.68 3 0 3 C0 2.01 0 1.02 0 0 Z " fill="#CADDE8" transform="translate(128,52)"/>
<path d="M0 0 C1.1184904 3.3554712 1.22294266 5.65729007 0 9 C-1.87835709 10.90966304 -3.83892107 12.3906859 -6 14 C-6.66 13.67 -7.32 13.34 -8 13 C-7.236875 12.154375 -6.47375 11.30875 -5.6875 10.4375 C-2.9508582 7.17996332 -1.50585211 3.96276872 0 0 Z " fill="#3F3F3F" transform="translate(124,90)"/>
<path d="M0 0 C0.66 0 1.32 0 2 0 C2.93065133 2.60582371 3.14917407 3.64198224 2.0625 6.25 C1.711875 6.8275 1.36125 7.405 1 8 C0.67 7.34 0.34 6.68 0 6 C-0.78375 6.515625 -1.5675 7.03125 -2.375 7.5625 C-3.24125 8.036875 -4.1075 8.51125 -5 9 C-5.66 8.67 -6.32 8.34 -7 8 C-5.88200014 6.66079162 -4.75538103 5.32877444 -3.625 4 C-2.68527344 2.88625 -2.68527344 2.88625 -1.7265625 1.75 C-1.15679687 1.1725 -0.58703125 0.595 0 0 Z " fill="#7CCDFC" transform="translate(94,43)"/>
<path d="M0 0 C0.66 0.33 1.32 0.66 2 1 C-1.96 4.96 -5.92 8.92 -10 13 C-10 8.41771462 -7.08388033 6.1816619 -4 3 C-1.625 1.0625 -1.625 1.0625 0 0 Z " fill="#CFCFCF" transform="translate(83,43)"/>
<path d="M0 0 C0 1.32 0 2.64 0 4 C-4.29 4 -8.58 4 -13 4 C-10.71151961 1.71151961 -9.60592283 1.5103024 -6.5 0.875 C-5.7059375 0.70742187 -4.911875 0.53984375 -4.09375 0.3671875 C-2 0 -2 0 0 0 Z " fill="#B3B3B3" transform="translate(89,111)"/>
<path d="M0 0 C3.63 1.32 7.26 2.64 11 4 C11 4.33 11 4.66 11 5 C6.07872966 5.16682272 2.49656104 5.24828052 -2 3 C-1.34 2.67 -0.68 2.34 0 2 C0 1.34 0 0.68 0 0 Z " fill="#DFE5E8" transform="translate(53,101)"/>
<path d="M0 0 C4.37934119 0.51958285 8.68803391 1.05675742 13 2 C11.5625 3.6875 11.5625 3.6875 9 5 C5.85715045 4.35087445 2.95731007 3.23221253 0 2 C0 1.34 0 0.68 0 0 Z " fill="#434343" transform="translate(103,114)"/>
<path d="M0 0 C0.33 0 0.66 0 1 0 C2.46750903 7.21525271 2.46750903 7.21525271 0.25 10.9375 C-2 13 -2 13 -5 14 C-5.66 13.34 -6.32 12.68 -7 12 C-6.21625 11.690625 -5.4325 11.38125 -4.625 11.0625 C-0.80738984 8.06294916 -0.65265251 4.64649622 0 0 Z " fill="#FB8384" transform="translate(105,85)"/>
<path d="M0 0 C5.61 0 11.22 0 17 0 C17 0.33 17 0.66 17 1 C14.03 1 11.06 1 8 1 C8 1.66 8 2.32 8 3 C2.25 2.25 2.25 2.25 0 0 Z " fill="#CECECE" transform="translate(123,117)"/>
<path d="M0 0 C-6.75 4 -6.75 4 -9 4 C-9 3.34 -9 2.68 -9 2 C-10.32 1.67 -11.64 1.34 -13 1 C-11.58622218 0.63447197 -10.16879424 0.28304505 -8.75 -0.0625 C-7.96109375 -0.25972656 -7.1721875 -0.45695312 -6.359375 -0.66015625 C-3.89605178 -1.01497267 -2.34395868 -0.76877544 0 0 Z " fill="#333333" transform="translate(86,115)"/>
<path d="M0 0 C6.27 0.33 12.54 0.66 19 1 C19 1.33 19 1.66 19 2 C14.05 2 9.1 2 4 2 C3.67 2.66 3.34 3.32 3 4 C2.01 2.68 1.02 1.36 0 0 Z " fill="#70C9FD" transform="translate(15,43)"/>
<path d="M0 0 C5.28 0.66 10.56 1.32 16 2 C16 2.33 16 2.66 16 3 C12.7 3 9.4 3 6 3 C6 3.66 6 4.32 6 5 C5.01 4.67 4.02 4.34 3 4 C3 3.34 3 2.68 3 2 C2.01 2 1.02 2 0 2 C0 1.34 0 0.68 0 0 Z " fill="#CACCCD" transform="translate(96,107)"/>
<path d="M0 0 C-0.98227577 2.19123057 -1.74408691 3.77479648 -3.5625 5.375 C-5.62278935 7.70402275 -5.6639317 9.97538534 -6 13 C-6.33 13 -6.66 13 -7 13 C-7.43535798 8.64642017 -7.38921814 5.95900264 -4.625 2.5625 C-2 0 -2 0 0 0 Z " fill="#FAD7D7" transform="translate(91,78)"/>
<path d="M0 0 C3.33333333 3.33333333 6.66666667 6.66666667 10 10 C6.50236796 10 5.90164472 9.44290244 3.3125 7.25 C2.68988281 6.73953125 2.06726563 6.2290625 1.42578125 5.703125 C0 4 0 4 0 0 Z " fill="#6F6F6F" transform="translate(101,119)"/>
<path d="M0 0 C0.33 1.32 0.66 2.64 1 4 C-1.64 4.33 -4.28 4.66 -7 5 C-6 2 -6 2 -4.0625 0.8125 C-2 0 -2 0 0 0 Z " fill="#DFECF4" transform="translate(138,100)"/>
<path d="M0 0 C3.63 0.66 7.26 1.32 11 2 C11 2.99 11 3.98 11 5 C4.6 4.50769231 4.6 4.50769231 1.5625 1.9375 C1.046875 1.298125 0.53125 0.65875 0 0 Z " fill="#A7A7A7" transform="translate(130,131)"/>
<path d="M0 0 C2.31 0.33 4.62 0.66 7 1 C7 2.32 7 3.64 7 5 C2.25 3.125 2.25 3.125 0 2 C0 1.34 0 0.68 0 0 Z " fill="#353535" transform="translate(26,124)"/>
<path d="M0 0 C1.125 1.5625 1.125 1.5625 2 4 C1.125 7.75 1.125 7.75 0 11 C-2 7.25 -2 7.25 -2 5 C-1.34 5 -0.68 5 0 5 C0 3.35 0 1.7 0 0 Z " fill="#BCD0DB" transform="translate(61,57)"/>
<path d="M0 0 C0.66 0 1.32 0 2 0 C1.25 1.9375 1.25 1.9375 0 4 C-2.94639752 5.27677226 -4.99135897 4.96706319 -8 4 C-6.865625 3.525625 -5.73125 3.05125 -4.5625 2.5625 C-1.24259834 1.36377917 -1.24259834 1.36377917 0 0 Z " fill="#8FD4FC" transform="translate(170,43)"/>
<path d="M0 0 C2.96175123 0.61277612 4.38058783 1.25372522 7 3 C4.03 3 1.06 3 -2 3 C-1.34 2.01 -0.68 1.02 0 0 Z " fill="#62B6E6" transform="translate(114,104)"/>
</svg>
