<?xml version="1.0" standalone="no"?>
<!DOCTYPE svg PUBLIC "-//W3C//DTD SVG 20010904//EN"
 "http://www.w3.org/TR/2001/REC-SVG-20010904/DTD/svg10.dtd">
<svg version="1.0" xmlns="http://www.w3.org/2000/svg"
 width="1280.000000pt" height="407.000000pt" viewBox="0 0 1280.000000 407.000000"
 preserveAspectRatio="xMidYMid meet">

<g transform="translate(0.000000,407.000000) scale(0.100000,-0.100000)"
fill="#000000" stroke="none">
<path d="M1630 3212 c0 -32 -44 -170 -70 -223 -22 -43 -78 -114 -185 -236
-148 -168 -201 -292 -212 -490 -3 -62 -9 -113 -12 -113 -4 0 -13 6 -20 13 -11
10 -12 9 -6 -2 6 -11 4 -13 -9 -8 -10 4 -20 7 -22 7 -2 0 -4 6 -4 14 0 15 -88
61 -185 97 -100 37 -184 49 -355 49 -169 0 -210 -5 -210 -22 0 -6 29 -37 64
-69 68 -63 107 -123 205 -316 72 -142 142 -248 208 -317 47 -48 139 -116 157
-116 5 0 17 -6 25 -14 9 -7 27 -17 41 -21 20 -6 17 -1 -15 24 -22 18 -49 39
-60 49 -11 9 -24 17 -30 17 -5 1 -9 7 -7 14 1 7 -15 34 -37 59 -57 69 -107
158 -136 247 -21 62 -28 104 -31 204 -3 75 -1 132 5 140 8 13 21 13 89 3 185
-29 342 -101 432 -200 58 -62 167 -233 204 -320 23 -51 33 -48 15 5 -32 99
-50 144 -88 217 -81 156 -91 265 -36 379 28 57 279 382 295 382 4 0 24 -23 43
-51 19 -29 66 -90 104 -135 208 -248 229 -371 103 -618 -49 -97 -60 -128 -39
-116 6 4 8 9 5 12 -3 3 4 14 15 26 10 11 38 53 61 91 24 39 79 108 123 152 72
74 88 85 163 113 114 43 193 62 265 64 l62 2 -1 -160 c-1 -137 -4 -169 -23
-223 -39 -113 -79 -172 -197 -290 -99 -98 -108 -110 -71 -91 56 29 132 83 185
133 72 68 137 165 228 337 102 195 154 269 231 337 32 28 54 54 49 59 -4 4
-105 8 -224 8 -200 0 -223 -2 -292 -23 -82 -26 -167 -67 -248 -118 -29 -19
-54 -34 -56 -34 -2 0 -4 44 -3 98 1 72 -5 117 -22 177 -37 133 -58 166 -276
430 -77 93 -139 210 -155 292 -18 97 -20 103 -30 103 -6 0 -10 -12 -10 -28z
m-454 -1105 c2 -13 -1 -14 -17 -4 -10 6 -19 15 -19 19 0 4 -8 4 -17 1 -15 -6
-16 -5 -3 9 12 14 18 14 34 4 11 -7 20 -20 22 -29z"/>
<path d="M4560 2381 c-26 -7 -36 -34 -39 -99 l-1 -33 62 3 63 3 8 54 c4 30 4
58 0 62 -13 12 -66 18 -93 10z"/>
<path d="M4090 2356 c-7 -20 -86 -409 -103 -508 l-4 -28 63 0 c71 0 67 -6 79
115 4 33 11 77 16 98 10 38 10 38 57 35 l47 -3 -4 -121 -3 -122 60 -7 c34 -4
65 -4 70 -1 13 8 12 77 -1 93 -5 7 -6 59 -3 125 4 70 3 119 -3 128 -8 11 -31
15 -101 14 l-91 -1 5 26 c3 14 8 49 11 76 4 28 9 62 11 78 6 27 5 27 -45 27
-45 0 -53 -3 -61 -24z"/>
<path d="M10242 2308 c-6 -40 -14 -95 -17 -123 -3 -27 -15 -93 -27 -145 -16
-77 -19 -108 -12 -160 l9 -65 67 -2 c60 -1 67 0 72 20 11 42 6 66 -16 78 -13
6 -24 13 -26 14 -1 1 9 58 22 126 14 68 30 158 36 199 6 41 13 87 16 103 l6
27 -59 0 -60 0 -11 -72z"/>
<path d="M3310 2342 c0 -4 -2 -123 -5 -265 l-6 -258 112 3 113 3 16 65 c9 36
34 105 56 153 34 78 39 85 42 58 2 -17 -4 -78 -12 -136 -24 -160 -32 -145 83
-145 76 0 103 4 115 15 16 17 166 463 166 496 0 16 -7 19 -55 19 -46 0 -57 -4
-69 -23 -9 -12 -35 -95 -59 -183 -24 -88 -49 -170 -56 -182 -28 -53 -33 -22
-30 181 l4 202 -58 3 c-33 2 -65 -2 -72 -8 -7 -6 -23 -48 -35 -93 -30 -115
-68 -239 -80 -257 -8 -13 -10 -13 -14 0 -3 8 -7 31 -9 50 -3 20 -4 12 -4 -21
1 -61 -10 -91 -24 -68 -8 13 -4 173 5 187 3 5 6 53 7 107 l2 99 -67 2 c-36 1
-66 -1 -66 -4z"/>
<path d="M5775 2338 c-2 -7 -11 -53 -19 -103 -9 -49 -30 -161 -46 -248 -17
-87 -30 -160 -30 -163 0 -2 76 -4 168 -4 l169 0 11 51 c7 29 10 54 8 57 -3 2
-47 5 -98 6 l-93 1 3 60 c2 33 10 105 18 160 9 55 18 121 21 148 l6 47 -57 0
c-37 0 -58 -4 -61 -12z"/>
<path d="M8125 2331 c-55 -24 -101 -80 -120 -143 -8 -29 -20 -105 -27 -169
-10 -109 -10 -119 8 -150 24 -41 67 -58 149 -58 87 -1 134 15 177 60 41 43 60
105 37 121 -27 18 -92 1 -119 -31 -28 -33 -67 -46 -105 -37 -24 6 -25 10 -25
74 0 113 17 194 46 220 28 25 107 31 121 10 4 -7 7 -38 8 -68 l0 -55 48 1 c61
0 78 18 85 85 6 68 -16 111 -73 139 -54 26 -154 27 -210 1z"/>
<path d="M4819 2272 c-13 -10 -36 -23 -50 -29 -29 -12 -37 -46 -60 -256 l-12
-109 29 -29 c20 -20 43 -31 76 -35 105 -15 178 18 218 97 31 60 27 69 -28 69
-42 0 -50 -3 -60 -25 -12 -26 -44 -39 -83 -33 -21 3 -24 9 -27 55 -5 88 1 93
124 93 l105 0 -3 53 -3 52 -85 0 -85 0 -5 54 c-6 61 -16 70 -51 43z"/>
<path d="M6608 2265 c-40 -27 -49 -48 -68 -165 -6 -36 -15 -83 -20 -105 -17
-72 -13 -123 14 -150 41 -40 175 -47 245 -11 54 28 106 172 55 152 -9 -3 -31
-6 -49 -6 -27 0 -37 -6 -47 -27 -10 -21 -23 -29 -50 -34 -48 -7 -58 4 -58 64
0 85 6 89 123 86 l102 -3 0 55 0 54 -87 -4 -88 -3 0 61 c0 71 -12 77 -72 36z"/>
<path d="M10533 2277 c-4 -8 -21 -20 -38 -28 -36 -17 -47 -55 -71 -241 l-17
-128 34 -31 c29 -27 42 -31 104 -36 90 -6 149 21 181 83 38 72 38 81 6 87 -43
9 -81 -5 -95 -33 -14 -28 -72 -49 -89 -32 -11 11 -13 126 -2 144 4 6 47 9 113
6 l106 -3 0 55 0 55 -92 -2 -93 -3 0 60 c0 53 -2 60 -20 60 -10 0 -23 -6 -27
-13z"/>
<path d="M5213 2166 c-73 -34 -105 -91 -111 -197 -2 -43 -2 -90 2 -104 18 -70
206 -75 286 -9 35 30 40 69 10 77 -14 4 -20 14 -20 32 0 25 3 27 30 21 26 -5
32 -2 40 20 25 66 0 132 -59 158 -67 29 -121 29 -178 2z m97 -61 c7 -9 13 -34
12 -56 -1 -27 3 -41 13 -45 8 -4 15 -16 15 -28 0 -39 -23 -58 -78 -64 -48 -4
-51 -3 -58 22 -9 36 3 91 23 107 15 12 16 12 9 -6 -13 -33 -12 -50 4 -50 11 0
15 13 16 56 1 76 16 98 44 64z"/>
<path d="M4550 2171 c-34 -6 -36 -8 -52 -75 -25 -99 -38 -199 -27 -211 5 -5 9
-19 9 -31 0 -31 17 -39 80 -39 l55 0 3 44 c3 35 -1 46 -18 58 -24 17 -23 30 6
170 9 40 13 77 9 83 -7 11 -11 11 -65 1z"/>
<path d="M6190 2158 c-68 -36 -95 -96 -95 -210 0 -116 12 -129 122 -136 127
-7 183 31 217 147 26 90 22 135 -18 178 -32 36 -37 38 -108 41 -62 3 -80 0
-118 -20z m124 -94 c19 -18 20 -44 6 -96 -12 -42 -38 -61 -77 -56 -32 4 -41
31 -35 101 3 38 9 50 26 57 33 14 63 11 80 -6z"/>
<path d="M6984 2173 c-23 -4 -29 -33 -52 -223 -15 -126 -16 -124 57 -134 44
-6 66 -6 68 1 2 6 11 19 19 29 14 18 15 18 9 -3 -9 -33 32 -32 46 1 13 28 39
24 39 -5 0 -20 2 -21 65 -24 59 -3 72 3 79 33 4 15 9 35 12 45 4 12 0 17 -14
17 -27 0 -32 -9 -22 -36 7 -19 6 -24 -5 -24 -11 0 -15 12 -16 43 -2 87 3 146
15 207 15 71 13 73 -54 68 l-43 -3 -18 -90 c-10 -49 -19 -102 -19 -116 0 -34
-15 -44 -65 -44 -46 0 -44 -12 -23 152 6 51 9 95 7 98 -9 8 -62 13 -85 8z"/>
<path d="M7475 2171 c-42 -19 -75 -66 -81 -117 -8 -61 5 -75 73 -77 l48 -2 -3
61 c-4 73 10 92 60 78 36 -11 51 -46 39 -91 -13 -49 -34 -34 -35 24 -1 30 -5
52 -11 50 -13 -3 -15 -156 -3 -180 13 -24 2 -67 -17 -67 -22 0 -34 30 -24 58
5 14 7 27 5 30 -3 2 -34 1 -70 -3 -80 -8 -93 -21 -77 -75 14 -46 31 -52 156
-47 67 3 87 7 123 30 l43 28 -3 57 c-3 55 -4 57 -36 67 -25 7 -32 14 -30 29 2
16 14 22 47 28 25 4 49 12 53 16 14 14 -1 58 -29 84 -22 20 -36 23 -116 25
-51 2 -101 -1 -112 -6z m-10 -281 c3 -5 1 -10 -4 -10 -6 0 -11 5 -11 10 0 6 2
10 4 10 3 0 8 -4 11 -10z m-30 -39 c3 -5 1 -12 -5 -16 -5 -3 -10 1 -10 9 0 18
6 21 15 7z m75 -11 c0 -5 -4 -10 -10 -10 -5 0 -10 5 -10 10 0 6 5 10 10 10 6
0 10 -4 10 -10z"/>
<path d="M8549 2160 c-20 -11 -48 -33 -62 -50 -39 -46 -62 -173 -44 -243 10
-38 58 -57 141 -57 121 0 170 38 201 155 39 153 -1 216 -137 215 -42 -1 -75
-7 -99 -20z m116 -93 c15 -11 17 -23 13 -66 -6 -66 -29 -91 -80 -91 -36 0 -38
2 -40 33 -3 77 7 116 35 127 32 13 51 12 72 -3z"/>
<path d="M9090 2173 c-19 -3 -41 -9 -48 -15 -9 -8 -16 -8 -24 0 -7 7 -34 12
-60 12 -54 0 -49 11 -73 -140 -8 -52 -22 -121 -29 -152 -8 -32 -11 -60 -7 -62
3 -2 31 -1 61 2 l55 7 16 114 c9 62 21 116 27 120 6 4 29 5 52 3 46 -5 47 -9
24 -89 -14 -50 -15 -135 -2 -149 8 -7 121 -14 141 -8 13 4 17 16 17 54 0 43
-3 49 -22 52 -13 2 -22 9 -20 17 9 40 12 208 4 219 -10 15 -62 22 -112 15z"/>
<path d="M9404 2169 c-49 -14 -75 -49 -80 -110 -3 -30 -1 -59 3 -66 5 -6 35
-13 68 -14 l60 -3 -4 35 c-11 82 -7 104 17 107 13 2 34 -4 48 -12 39 -26 30
-116 -11 -116 -6 0 -11 21 -10 52 0 34 -4 53 -13 56 -11 3 -13 -7 -8 -49 17
-172 17 -175 2 -188 -25 -21 -38 -3 -31 40 7 39 7 39 -27 38 -18 0 -53 -4 -78
-7 -41 -7 -45 -10 -42 -32 6 -54 22 -77 57 -83 69 -11 189 -1 225 20 31 17 36
26 44 75 12 73 5 88 -39 88 -19 0 -35 4 -35 9 0 27 15 41 44 41 55 0 76 10 76
36 0 26 -40 71 -77 85 -30 11 -147 10 -189 -2z m-48 -336 c-10 -10 -19 5 -10
18 6 11 8 11 12 0 2 -7 1 -15 -2 -18z"/>
<path d="M10015 2171 c-33 -7 -29 5 -58 -171 l-12 -75 -54 -3 -54 -3 6 68 c4
37 10 94 13 126 l7 57 -51 0 -51 0 -7 -37 c-3 -21 -13 -72 -21 -113 -18 -90
-22 -175 -8 -188 6 -5 43 -13 83 -16 68 -7 72 -6 72 13 0 11 4 23 10 26 14 8
93 -16 103 -32 5 -7 27 -13 52 -13 l44 0 -6 35 c-5 31 -3 35 16 35 12 0 21 -6
21 -15 0 -22 17 -18 23 4 5 20 -10 31 -41 31 -42 1 -44 11 -26 132 10 63 14
123 11 132 -7 17 -21 18 -72 7z"/>
<path d="M10930 2173 c-33 -12 -80 -69 -96 -115 -18 -55 -24 -211 -9 -227 6
-5 42 -13 82 -16 l71 -7 4 28 c4 41 18 37 45 -15 1 -1 12 4 25 13 30 21 36 20
40 -6 2 -13 6 -22 11 -20 4 1 21 2 37 2 27 0 30 3 30 33 0 19 3 37 7 40 11 12
33 -14 33 -39 0 -13 5 -24 11 -24 6 0 9 16 7 37 -3 33 -7 39 -33 43 -29 5 -30
7 -29 55 0 28 5 87 9 133 l8 82 -49 0 c-27 0 -55 -4 -63 -9 -9 -6 -19 -4 -28
5 -14 14 -83 18 -113 7z m120 -155 c0 -89 -31 -122 -93 -99 -24 9 -27 16 -27
56 0 59 13 82 53 99 48 19 67 3 67 -56z"/>
<path d="M11329 2172 c-12 -2 -20 -22 -29 -70 -6 -37 -16 -87 -21 -112 -13
-56 -13 -160 0 -173 5 -5 27 -6 49 -2 l39 6 12 107 c7 59 14 112 16 119 4 13
83 28 93 18 4 -4 5 -58 3 -120 -2 -76 1 -115 8 -120 6 -3 36 -9 66 -12 l54 -6
3 39 c2 27 8 40 21 42 13 3 17 -3 17 -28 0 -36 15 -32 24 6 8 32 -5 44 -51 44
-39 0 -39 3 -22 126 10 66 9 86 -2 110 l-14 29 -125 0 c-69 1 -132 -1 -141 -3z
m161 -24 c0 -5 -4 -6 -10 -3 -5 3 -10 1 -10 -4 0 -6 -7 -11 -16 -11 -8 0 -13
4 -10 9 4 5 0 11 -6 13 -7 3 2 5 20 5 17 0 32 -4 32 -9z m-107 -15 c-7 -2 -19
-2 -25 0 -7 3 -2 5 12 5 14 0 19 -2 13 -5z"/>
<path d="M11800 2158 c-48 -33 -67 -64 -86 -137 -15 -60 -15 -69 1 -127 9 -35
22 -67 29 -72 6 -5 45 -10 86 -11 88 -3 158 22 180 64 12 22 11 28 -7 48 -22
24 -37 103 -22 113 14 8 39 -15 33 -30 -6 -16 23 -29 31 -15 14 21 17 116 5
138 -17 33 -70 51 -148 51 -55 0 -76 -5 -102 -22z m132 -95 c10 -9 18 -27 18
-40 0 -13 5 -33 10 -44 20 -36 -3 -57 -65 -61 -30 -1 -60 -1 -65 0 -11 4 -13
112 -2 128 6 10 55 31 76 33 5 1 18 -6 28 -16z"/>
<path d="M12165 2168 c-9 -28 -35 -229 -35 -276 0 -45 2 -50 25 -56 28 -7 25
-26 -3 -26 -11 0 -25 -19 -40 -56 -22 -55 -22 -57 -5 -92 20 -41 41 -50 126
-51 61 -1 117 20 149 56 43 47 75 158 103 358 22 154 22 155 -22 155 -21 0
-45 -5 -53 -10 -9 -5 -28 -62 -45 -132 l-30 -123 -40 0 c-50 0 -52 11 -34 148
11 84 10 100 -2 108 -21 13 -89 11 -94 -3z m153 -357 c1 -1 2 -16 2 -34 0 -41
-15 -57 -53 -57 -29 0 -30 1 -24 44 4 31 3 46 -6 50 -9 4 57 1 81 -3z m-96
-90 c-10 -27 -24 19 -16 52 l8 32 6 -35 c3 -19 4 -41 2 -49z"/>
<path d="M3441 2094 c0 -11 3 -14 6 -6 3 7 2 16 -1 19 -3 4 -6 -2 -5 -13z"/>
<path d="M4404 1865 c0 -37 13 -47 22 -17 3 9 10 25 15 35 7 14 5 17 -14 17
-20 0 -23 -5 -23 -35z"/>
<path d="M685 1460 c-6 -10 16 -50 28 -50 4 0 3 9 -3 19 -7 14 -6 21 2 23 8 3
6 7 -5 11 -9 3 -19 2 -22 -3z"/>
<path d="M2460 1395 c-192 -98 -336 -147 -455 -153 -108 -6 -89 -18 43 -28
117 -9 215 13 347 76 104 50 217 133 223 163 2 9 0 17 -5 16 -4 0 -73 -34
-153 -74z m-310 -159 c0 -9 -39 -13 -51 -5 -10 6 -4 9 19 9 17 0 32 -2 32 -4z"/>
<path d="M733 1413 c-2 -27 1 -33 13 -29 8 3 12 2 9 -3 -3 -6 15 -24 39 -40
47 -33 62 -38 50 -19 -4 7 -3 8 5 4 6 -4 9 -11 6 -15 -5 -9 135 -74 143 -66 3
3 0 5 -7 5 -7 0 -9 5 -6 10 5 8 11 7 20 0 10 -8 19 -9 32 -1 10 6 12 11 6 11
-7 0 -13 4 -13 9 0 4 12 6 28 4 15 -2 -9 11 -53 30 -44 18 -100 44 -123 56
-48 24 -60 23 -43 -6 6 -11 11 -13 11 -5 0 7 5 10 11 6 8 -4 8 -9 0 -17 -8 -8
-18 -4 -36 13 -17 16 -22 26 -14 31 8 4 -1 13 -22 25 -33 16 -33 16 -19 -1 14
-17 14 -17 -7 -5 -12 8 -20 17 -17 21 2 4 1 10 -3 12 -5 3 -9 -11 -10 -30z
m237 -113 c0 -5 -5 -10 -11 -10 -5 0 -7 5 -4 10 3 6 8 10 11 10 2 0 4 -4 4
-10z m50 -22 c0 -5 -9 -4 -20 2 -11 6 -20 12 -20 14 0 2 9 2 20 -1 11 -3 20
-9 20 -15z"/>
<path d="M1103 1273 c14 -4 16 -8 6 -19 -8 -10 -8 -14 0 -14 6 0 11 5 11 10 0
6 10 10 23 11 21 1 21 1 -3 9 -14 4 -32 8 -40 8 -9 0 -8 -2 3 -5z"/>
<path d="M1050 1244 c-10 -11 -9 -14 3 -14 8 0 21 -2 29 -3 7 -2 10 -2 5 0 -4
3 -5 8 -2 13 9 15 -23 19 -35 4z"/>
<path d="M1183 1253 c9 -2 23 -2 30 0 6 3 -1 5 -18 5 -16 0 -22 -2 -12 -5z"/>
<path d="M1118 1213 c6 -2 18 -2 25 0 6 3 1 5 -13 5 -14 0 -19 -2 -12 -5z"/>
<path d="M1823 1120 c-61 -37 -113 -103 -92 -116 7 -4 9 -3 6 3 -4 6 2 13 14
16 18 5 18 3 7 -11 -12 -15 -11 -16 5 -3 11 8 16 22 14 33 -3 11 -1 15 5 12
10 -6 46 31 68 69 13 21 12 21 -27 -3z"/>
<path d="M1440 1126 c0 -3 29 -45 64 -94 85 -117 114 -177 118 -240 2 -29 5
-52 8 -52 3 0 10 17 17 37 9 29 8 41 -3 58 -8 12 -11 25 -7 28 3 4 1 7 -5 7
-7 0 -12 14 -12 33 0 33 -48 117 -95 167 -24 25 -85 66 -85 56z"/>
</g>
</svg>
