<?xml version="1.0" encoding="UTF-8"?>
<svg version="1.1" xmlns="http://www.w3.org/2000/svg" width="190" height="168">
<path d="M0 0 C0.66 0 1.32 0 2 0 C2.13535156 0.78761719 2.27070312 1.57523437 2.41015625 2.38671875 C5.01921251 15.58823096 11.3035814 25.55956834 19.5546875 35.8984375 C22.89528919 40.1355585 25.96180124 44.54330447 29 49 C29.4125 48.21625 29.825 47.4325 30.25 46.625 C32.13584482 43.79623276 32.89916073 43.16649492 36 42 C38.60620117 41.82055664 38.60620117 41.82055664 41.54296875 41.91015625 C43.15461914 41.94012695 43.15461914 41.94012695 44.79882812 41.97070312 C47.03853591 42.03137532 49.27813042 42.09640229 51.51757812 42.16601562 C60.07910687 42.3140683 66.42067441 40.88518277 74 37 C74.33 37.66 74.66 38.32 75 39 C73.09849908 41.92016213 71.28121147 44.67484924 69 47.3125 C64.95966101 52.74170552 63.0285356 58.73455559 61.24438477 65.19677734 C57.08806153 80.23293606 50.67655232 90.09371157 36.94140625 97.93359375 C36.30074219 98.28550781 35.66007812 98.63742188 35 99 C41.76149347 96.46163202 48.41234099 93.83574562 55 90.875 C64.05029686 86.96462675 73.09374654 84.41727921 83 85 C76.31156346 97.11325965 62.80817147 107.78786534 49.625 112 C45.45264623 113.0292727 41.27605165 113.60406929 37 114 C46.20493348 119.0132132 56.94644191 118.71124393 67 117 C67 118.32 67 119.64 67 121 C56.09148213 130.46509143 40.86791755 132.82409922 26.97558594 132.17480469 C18.23745532 131.40163347 11.99106397 127.11122858 6 121 C5.92523438 121.67804688 5.85046875 122.35609375 5.7734375 123.0546875 C4.74981001 130.30036445 2.68452556 136.27322354 -2 142 C-4.1953125 143.27734375 -4.1953125 143.27734375 -6 144 C-11.9206569 137.45611606 -13.26790179 131.66958411 -14 123 C-14.556875 123.39832031 -15.11375 123.79664063 -15.6875 124.20703125 C-26.27052518 131.55436798 -35.29210387 133.27520719 -48 132 C-56.44869278 130.37982815 -65.00952758 127.09324038 -72 122 C-73.30078125 119.8125 -73.30078125 119.8125 -74 118 C-73.01902344 118.03480469 -72.03804687 118.06960937 -71.02734375 118.10546875 C-61.25705899 118.33948755 -52.50926055 117.29533875 -43 115 C-44.03382812 114.70738281 -45.06765625 114.41476563 -46.1328125 114.11328125 C-64.33941267 108.90028035 -76.88944018 100.78674916 -90 87 C-89.67 86.01 -89.34 85.02 -89 84 C-73.8656825 86.13528737 -60.73928903 90.57810147 -46.94140625 97.1171875 C-45.20373298 98.06899016 -45.20373298 98.06899016 -44 98 C-44.6290625 97.6596875 -45.258125 97.319375 -45.90625 96.96875 C-60.62401024 88.63459661 -67.20931999 77.09199563 -71.625 61.1875 C-71.82448242 60.46344971 -72.02396484 59.73939941 -72.22949219 58.9934082 C-74.66208096 50.31258134 -77.81234135 44.51611012 -85 39 C-85 38.34 -85 37.68 -85 37 C-47.37914692 38.62085308 -47.37914692 38.62085308 -35 51 C-34.69449219 50.27296875 -34.38898437 49.5459375 -34.07421875 48.796875 C-30.04503143 39.94401272 -24.74016008 33.88184512 -18 27 C-12.63949823 21.46970858 -8.91914627 15.13992862 -5.05078125 8.5234375 C-4.52411865 7.62383301 -4.52411865 7.62383301 -3.98681641 6.70605469 C-3.09262846 5.16014044 -2.22260142 3.60031324 -1.35546875 2.0390625 C-0.90816406 1.36617188 -0.46085937 0.69328125 0 0 Z M-1 26 C-1.93547917 27.0882741 -2.84698433 28.19714154 -3.75 29.3125 C-7.52860227 33.72609559 -11.7798814 37.33615459 -16.29199219 40.96606445 C-25.20195101 48.23323286 -30.41506529 57.48023061 -32 69 C-32.644354 77.31802443 -32.752201 83.98831693 -28 91 C-27.27683594 92.19302734 -27.27683594 92.19302734 -26.5390625 93.41015625 C-23.25509016 98.78104524 -23.25509016 98.78104524 -18 102 C-18 102.66 -18 103.32 -18 104 C-15.03 104 -12.06 104 -9 104 C-10.59721796 102.93518803 -12.20479036 101.88175285 -13.8671875 100.921875 C-20.79069083 96.88091975 -25.21296625 92.29136274 -27.4921875 84.484375 C-29.42645462 75.0213451 -27.72111103 67.24703077 -22.8203125 59.01953125 C-19.21343744 53.84398568 -14.65000736 49.50226472 -10.13867188 45.12353516 C-7.78840234 42.83855089 -5.82678605 40.74017908 -4 38 C-3.01 37.67 -2.02 37.34 -1 37 C-0.87625 38.299375 -0.87625 38.299375 -0.75 39.625 C0.61520042 45.7684019 3.55905808 48.69400732 8.3125 52.5 C15.14180035 58.45867762 19.21483941 65.95977556 20.60546875 74.88671875 C20.90113526 82.78980474 20.0617823 89.70506888 15 96 C10.14891831 100.42491189 5.55391403 102.72111004 -1 103 C-0.443125 102.5875 0.11375 102.175 0.6875 101.75 C1.450625 101.1725 2.21375 100.595 3 100 C3.86625 99.401875 4.7325 98.80375 5.625 98.1875 C8.40429694 95.62762124 9.0947959 93.62081638 10 90 C9.45472656 90.3609375 8.90945312 90.721875 8.34765625 91.09375 C2.80416017 94.5051322 -1.48795851 96.11599958 -8 95 C-11.53050621 93.75778485 -13.40967318 92.66903706 -15.875 89.875 C-17.80693401 84.93783531 -17.95129239 80.55304112 -16.0859375 75.546875 C-13.94002121 71.14428546 -11.40074878 67.02764486 -8.8125 62.875 C-6.1892592 58.61307664 -4.90880742 54.90756005 -4 50 C-3.34 50 -2.68 50 -2 50 C-2.33 48.02 -2.66 46.04 -3 44 C-4.69568569 45.64269552 -6.35077401 47.31112915 -8 49 C-8.639375 49.63164063 -9.27875 50.26328125 -9.9375 50.9140625 C-17.91570745 59.22469527 -21.69341271 68.35703311 -22.12109375 79.890625 C-21.89357181 85.73280125 -21.08540481 90.57678663 -17.19140625 95.1015625 C-13.79835659 98.21880661 -10.50199378 100.73381425 -6 102 C-6.515625 102.763125 -7.03125 103.52625 -7.5625 104.3125 C-8.036875 105.199375 -8.51125 106.08625 -9 107 C-8.67 107.99 -8.34 108.98 -8 110 C-6.45833358 108.62514468 -6.45833358 108.62514468 -5 107 C-5 106.34 -5 105.68 -5 105 C-1.63523477 106.12158841 -1.33159373 106.62745646 0.5625 109.4375 C7.10039127 118.44129567 14.69457639 126.73891528 26 129 C27.58211573 129.06548492 29.16670081 129.08578381 30.75 129.0625 C31.54921875 129.05347656 32.3484375 129.04445313 33.171875 129.03515625 C33.77515625 129.02355469 34.3784375 129.01195312 35 129 C32.00373527 126.88738845 32.00373527 126.88738845 28.4375 125.375 C24.92897298 123.66555344 22.16480866 121.57993774 19.1875 119.0625 C14.79886598 115.40303343 10.4395578 113.12863048 5.15234375 111.0078125 C3 110 3 110 2 108 C2.66 107.67 3.32 107.34 4 107 C3.01 106.01 3.01 106.01 2 105 C6.95 104.505 6.95 104.505 12 104 C12 103.34 12 102.68 12 102 C13.57421875 100.7734375 13.57421875 100.7734375 15.6875 99.375 C21.88651814 94.87659745 24.9320657 89.30549717 27 82 C28.31178747 70.71862779 26.05956609 60.42478979 19.5 51.0625 C17.40027113 48.47228328 15.12576496 46.06563375 12.83203125 43.6484375 C11.96771484 42.73372681 11.96771484 42.73372681 11.0859375 41.80053711 C9.92893924 40.58508367 8.76135736 39.37959249 7.58203125 38.18579102 C3.89667753 34.35647817 1.80562305 31.00853037 0 26 C-0.33 26 -0.66 26 -1 26 Z M-61 51 C-59.32947513 65.06232875 -54.60752114 78.72285307 -43.47265625 88.13671875 C-41.03693707 89.88384364 -38.58244739 91.47989719 -36 93 C-35.37351562 93.37125 -34.74703125 93.7425 -34.1015625 94.125 C-32.38859099 95.10219591 -32.38859099 95.10219591 -30 96 C-29.01 95.505 -29.01 95.505 -28 95 C-28.47050781 94.29875 -28.94101563 93.5975 -29.42578125 92.875 C-34.74905773 84.7633406 -38.23278742 79.38966267 -37.78686523 69.63183594 C-37.23304717 62.95801606 -37.23304717 62.95801606 -39.41796875 56.89453125 C-41.58825797 55.486659 -43.51945073 54.73098312 -46 54 C-46.85207031 53.69191406 -47.70414063 53.38382813 -48.58203125 53.06640625 C-52.85253237 51.62583241 -56.47427607 50.84726687 -61 51 Z M-1 52 C-0.44204504 56.96387516 1.87031192 60.54967118 4.375 64.75 C7.6533236 70.3865289 10.30253158 75.66278455 12 82 C12.33 82 12.66 82 13 82 C12.58964892 68.54048446 9.59669512 61.48689312 0 52 C-0.33 52 -0.66 52 -1 52 Z M44.0625 55.875 C42.81146484 56.39707031 42.81146484 56.39707031 41.53515625 56.9296875 C40.69855469 57.28289063 39.86195313 57.63609375 39 58 C37.33461077 58.66985142 35.66830818 59.33745185 34 60 C34.165 60.66 34.33 61.32 34.5 62 C36.5519907 74.31194422 32.80369164 84.79446254 26 95 C35.17621217 92.1324337 41.55005426 85.28124049 46 77 C48.97954898 69.53536275 51.23952473 61.8421171 53 54 C49.1669977 54 47.48612046 54.42958859 44.0625 55.875 Z M-11.3125 77.1875 C-13.49348946 80.82248243 -13.67096636 82.82509823 -13 87 C-10.59475502 90.25415498 -8.89383177 91.69571685 -5.0625 93 C-1.25275797 93 0.80498871 92.033189 4 90 C6.45380136 86.31929796 6.81652381 83.27425218 6 79 C3.72090262 75.9394978 2.07086825 74.40157559 -1.5 73.0625 C-5.86343732 72.95341407 -8.16799317 74.21296651 -11.3125 77.1875 Z M11 84 C12 87 12 87 12 87 Z M10 87 C11 90 11 90 11 90 Z M-10 110 C-16.22680828 112.82453159 -21.89384515 115.6768524 -27.125 120.125 C-31.71480385 124.0144117 -36.30373496 126.15780365 -42 128 C-42 128.33 -42 128.66 -42 129 C-32.55148013 129.7101184 -26.04486159 127.81436447 -18.8125 121.625 C-17.52702013 120.43226016 -16.25567119 119.22408197 -15 118 C-14.39542969 117.41089844 -13.79085937 116.82179688 -13.16796875 116.21484375 C-11.76425218 114.82427675 -10.37980326 113.41429834 -9 112 C-9.495 111.01 -9.495 111.01 -10 110 Z " fill="#020304" transform="translate(98,5)"/>
<path d="M0 0 C0.66 0 1.32 0 2 0 C2.13535156 0.78761719 2.27070312 1.57523437 2.41015625 2.38671875 C5.01921251 15.58823096 11.3035814 25.55956834 19.5546875 35.8984375 C22.89528919 40.1355585 25.96180124 44.54330447 29 49 C29.4125 48.21625 29.825 47.4325 30.25 46.625 C32.13584482 43.79623276 32.89916073 43.16649492 36 42 C38.60620117 41.82055664 38.60620117 41.82055664 41.54296875 41.91015625 C43.15461914 41.94012695 43.15461914 41.94012695 44.79882812 41.97070312 C47.03853591 42.03137532 49.27813042 42.09640229 51.51757812 42.16601562 C60.07910687 42.3140683 66.42067441 40.88518277 74 37 C74.33 37.66 74.66 38.32 75 39 C73.09849908 41.92016213 71.28121147 44.67484924 69 47.3125 C64.95966101 52.74170552 63.0285356 58.73455559 61.24438477 65.19677734 C57.55028879 78.56075562 52.10389846 88.72643098 40.0625 96.25 C38.38732436 97.1889998 36.70051294 98.10770533 35 99 C34.38769531 99.33128906 33.77539062 99.66257812 33.14453125 100.00390625 C26.32751024 103.11896883 18.36187838 102.74090477 11 103 C13.25323076 100.68849603 15.40726909 98.69454819 18 96.75 C22.51315856 93.05949313 24.90366888 87.65583905 26 82 C27.10679834 69.87265249 24.82274109 58.82901662 17.01171875 49.234375 C13.59430086 45.43871863 10.11920931 41.6944039 6.58203125 38.01000977 C3.58004682 34.85535956 1.06656551 31.87754871 -1 28 C-1.44988281 28.47308594 -1.89976563 28.94617188 -2.36328125 29.43359375 C-6.27580288 33.45588552 -10.29964243 37.12303779 -14.6875 40.625 C-23.95409408 48.13810874 -29.33999259 56.93458027 -31 69 C-31.99493167 81.84366339 -29.24408412 87.93877206 -22 98 C-22 98.66 -22 99.32 -22 100 C-21.0409375 100.185625 -21.0409375 100.185625 -20.0625 100.375 C-19.381875 100.58125 -18.70125 100.7875 -18 101 C-17.67 101.66 -17.34 102.32 -17 103 C-19.41674224 103.02705308 -21.8331794 103.04686438 -24.25 103.0625 C-25.27287109 103.07506836 -25.27287109 103.07506836 -26.31640625 103.08789062 C-29.69342554 103.10428392 -32.77291639 103.05628768 -36 102 C-36 101.34 -36 100.68 -36 100 C-36.99 100.33 -37.98 100.66 -39 101 C-39 100.34 -39 99.68 -39 99 C-39.54527344 98.86464844 -40.09054688 98.72929688 -40.65234375 98.58984375 C-51.17398699 95.58622936 -59.88568388 88.08837891 -65.3671875 78.64453125 C-68.08565234 73.06408014 -69.82887264 67.32794574 -71.5 61.375 C-74.17066689 51.89002941 -77.04534444 45.10473566 -85 39 C-85 38.34 -85 37.68 -85 37 C-47.37914692 38.62085308 -47.37914692 38.62085308 -35 51 C-34.69449219 50.27296875 -34.38898437 49.5459375 -34.07421875 48.796875 C-30.04503143 39.94401272 -24.74016008 33.88184512 -18 27 C-12.63949823 21.46970858 -8.91914627 15.13992862 -5.05078125 8.5234375 C-4.52411865 7.62383301 -4.52411865 7.62383301 -3.98681641 6.70605469 C-3.09262846 5.16014044 -2.22260142 3.60031324 -1.35546875 2.0390625 C-0.90816406 1.36617188 -0.46085937 0.69328125 0 0 Z M-61 51 C-59.32947513 65.06232875 -54.60752114 78.72285307 -43.47265625 88.13671875 C-41.03693707 89.88384364 -38.58244739 91.47989719 -36 93 C-35.37351562 93.37125 -34.74703125 93.7425 -34.1015625 94.125 C-32.38859099 95.10219591 -32.38859099 95.10219591 -30 96 C-29.01 95.505 -29.01 95.505 -28 95 C-28.47050781 94.29875 -28.94101563 93.5975 -29.42578125 92.875 C-34.74905773 84.7633406 -38.23278742 79.38966267 -37.78686523 69.63183594 C-37.23304717 62.95801606 -37.23304717 62.95801606 -39.41796875 56.89453125 C-41.58825797 55.486659 -43.51945073 54.73098312 -46 54 C-46.85207031 53.69191406 -47.70414063 53.38382813 -48.58203125 53.06640625 C-52.85253237 51.62583241 -56.47427607 50.84726687 -61 51 Z M44.0625 55.875 C42.81146484 56.39707031 42.81146484 56.39707031 41.53515625 56.9296875 C40.69855469 57.28289063 39.86195313 57.63609375 39 58 C37.33461077 58.66985142 35.66830818 59.33745185 34 60 C34.165 60.66 34.33 61.32 34.5 62 C36.5519907 74.31194422 32.80369164 84.79446254 26 95 C35.17621217 92.1324337 41.55005426 85.28124049 46 77 C48.97954898 69.53536275 51.23952473 61.8421171 53 54 C49.1669977 54 47.48612046 54.42958859 44.0625 55.875 Z " fill="#030405" transform="translate(98,5)"/>
<path d="M0 0 C-6.68843654 12.11325965 -20.19182853 22.78786534 -33.375 27 C-37.54735377 28.0292727 -41.72394835 28.60406929 -46 29 C-36.79506652 34.0132132 -26.05355809 33.71124393 -16 32 C-16 33.32 -16 34.64 -16 36 C-26.90851787 45.46509143 -42.13208245 47.82409922 -56.02441406 47.17480469 C-64.76254468 46.40163347 -71.00893603 42.11122858 -77 36 C-77.07476562 36.67804688 -77.14953125 37.35609375 -77.2265625 38.0546875 C-78.25018999 45.30036445 -80.31547444 51.27322354 -85 57 C-87.1953125 58.27734375 -87.1953125 58.27734375 -89 59 C-94.9206569 52.45611606 -96.26790179 46.66958411 -97 38 C-97.556875 38.39832031 -98.11375 38.79664063 -98.6875 39.20703125 C-104.87647426 43.50376845 -111.11766192 47.7389692 -119 47 C-119 46.01 -119 45.02 -119 44 C-118.24976563 43.81566406 -117.49953125 43.63132813 -116.7265625 43.44140625 C-104.47121262 39.96854262 -96.85597993 31.70203265 -89 22 C-88.67 21.34 -88.34 20.68 -88 20 C-85.54729274 20.37653502 -84.30506826 20.66313589 -82.61328125 22.53125 C-82.18402344 23.1809375 -81.75476563 23.830625 -81.3125 24.5 C-76.1117024 31.78373669 -69.85196272 39.33629012 -61 42 C-57.66764624 42.55459546 -54.37407118 42.86171839 -51 43 C-52.11375 42.505 -53.2275 42.01 -54.375 41.5 C-57.9116578 39.75028509 -60.738855 37.66839432 -63.75 35.125 C-68.36234137 31.25866719 -73.09995382 28.8508475 -78.62890625 26.51953125 C-81 25 -81 25 -81.90234375 22.38671875 C-81.93457031 21.59910156 -81.96679688 20.81148437 -82 20 C-80.15450463 18.15450463 -77.13701271 18.49617596 -74.6484375 18.23828125 C-73.31551051 18.0921395 -71.98275178 17.94445672 -70.65014648 17.79541016 C-69.60176102 17.6783371 -69.60176102 17.6783371 -68.53219604 17.55889893 C-56.53796234 16.18889535 -45.92256371 14.52264457 -35 9 C-23.69385851 3.84040173 -12.63829116 -0.74342889 0 0 Z " fill="#020303" transform="translate(181,90)"/>
<path d="M0 0 C0.99 0 1.98 0 3 0 C3.16113281 0.60585938 3.32226562 1.21171875 3.48828125 1.8359375 C5.36976238 7.63196941 7.6003402 10.85340632 12.3125 14.75 C19.65153103 21.05605749 24.10990021 28.22307781 25.59765625 37.87890625 C25.91173107 45.85962785 24.94974619 52.57253832 20 59 C15.09322093 64.10945037 9.93388399 66.06906187 3 67 C3 66.01 3 65.02 3 64 C4.95773135 62.57741161 7.01947311 61.51869426 9.15234375 60.37890625 C11.17898565 59.13471674 11.17898565 59.13471674 11.75390625 56.83984375 C11.83511719 56.23269531 11.91632813 55.62554687 12 55 C11.030625 55.66 10.06125 56.32 9.0625 57 C4.71555446 59.45887829 0.89914147 59.85691697 -4 59 C-7.66987421 57.67516124 -10.33359884 55.75238841 -12.9375 52.8125 C-14.79668822 47.89111943 -14.93716669 43.51513112 -13.0859375 38.546875 C-10.95375312 34.17245802 -8.43464539 30.0713273 -5.875 25.9375 C-3.44026455 21.98183727 -1.83456613 18.16889774 -0.54296875 13.71484375 C0 12 0 12 1 11 C0.67 10.01 0.34 9.02 0 8 C-10.65541517 19.56963719 -17.27133552 29.85553645 -17 46 C-16.28573713 51.53933653 -14.88369884 55.6413822 -10.6875 59.4375 C-7.65589413 61.71442952 -4.47639956 63.47377581 -1 65 C-2.69921875 66.1171875 -2.69921875 66.1171875 -5 67 C-12.2819315 65.07278865 -17.95542166 60.21292173 -22 54 C-25.61192794 46.96964026 -26.30649193 38.98976581 -24.30859375 31.359375 C-20.80079929 21.78999429 -14.40713983 15.17755853 -7.2265625 8.21142578 C-5.06692073 6.1121596 -3.07173198 4.10099327 -1.32421875 1.640625 C-0.88722656 1.09921875 -0.45023438 0.5578125 0 0 Z M3 15 C3.55795496 19.96387516 5.87031192 23.54967118 8.375 27.75 C11.6533236 33.3865289 14.30253158 38.66278455 16 45 C16.33 45 16.66 45 17 45 C16.58964892 31.54048446 13.59669512 24.48689312 4 15 C3.67 15 3.34 15 3 15 Z M-7.3125 40.1875 C-9.49348946 43.82248243 -9.67096636 45.82509823 -9 50 C-6.59475502 53.25415498 -4.89383177 54.69571685 -1.0625 56 C2.74724203 56 4.80498871 55.033189 8 53 C10.45380136 49.31929796 10.81652381 46.27425218 10 42 C7.72090262 38.9394978 6.07086825 37.40157559 2.5 36.0625 C-1.86343732 35.95341407 -4.16799317 37.21296651 -7.3125 40.1875 Z M15 47 C16 50 16 50 16 50 Z M14 50 C15 53 15 53 15 53 Z " fill="#47B3EF" transform="translate(94,42)"/>
<path d="M0 0 C31.27541147 1.34746671 31.27541147 1.34746671 41 7 C42.15048828 7.6496875 42.15048828 7.6496875 43.32421875 8.3125 C48.65873849 11.73850919 48.65873849 11.73850919 49.56640625 15.09375 C49.625 17.25 49.625 17.25 49 21 C48.34 21.66 47.68 22.32 47 23 C45.989375 22.2575 44.97875 21.515 43.9375 20.75 C37.87823796 16.90406695 30.90832914 15.61014442 24 14 C28.18704298 30.84080563 32.64445205 44.90807591 48.2109375 54.390625 C52.97936197 57.14215285 57.58468259 59.78601676 63 61 C63 61.66 63 62.32 63 63 C63.9590625 63.185625 63.9590625 63.185625 64.9375 63.375 C65.618125 63.58125 66.29875 63.7875 67 64 C67.33 64.66 67.66 65.32 68 66 C65.58325776 66.02705308 63.1668206 66.04686438 60.75 66.0625 C59.72712891 66.07506836 59.72712891 66.07506836 58.68359375 66.08789062 C55.30657446 66.10428392 52.22708361 66.05628768 49 65 C49 64.34 49 63.68 49 63 C48.01 63.33 47.02 63.66 46 64 C46 63.34 46 62.68 46 62 C45.45472656 61.86464844 44.90945312 61.72929688 44.34765625 61.58984375 C33.82601301 58.58622936 25.11431612 51.08837891 19.6328125 41.64453125 C16.91434766 36.06408014 15.17112736 30.32794574 13.5 24.375 C10.82933311 14.89002941 7.95465556 8.10473566 0 2 C0 1.34 0 0.68 0 0 Z " fill="#3BB5FA" transform="translate(13,42)"/>
<path d="M0 0 C0.66 0.66 1.32 1.32 2 2 C0.09849908 4.92016213 -1.71878853 7.67484924 -4 10.3125 C-8.04033899 15.74170552 -9.9714644 21.73455559 -11.75561523 28.19677734 C-15.44971121 41.56075562 -20.89610154 51.72643098 -32.9375 59.25 C-34.61267564 60.1889998 -36.29948706 61.10770533 -38 62 C-38.61230469 62.33128906 -39.22460938 62.66257813 -39.85546875 63.00390625 C-46.67248976 66.11896883 -54.63812162 65.74090477 -62 66 C-58.41931491 62.0328533 -56.26338905 61.68229117 -51 61 C-50.34 60.01 -49.68 59.02 -49 58 C-47.313924 57.2726731 -45.62605563 56.5489554 -43.92578125 55.85546875 C-36.07007633 52.36581484 -30.56123688 46.10908527 -27.24072266 38.18896484 C-24.76959913 31.58535985 -22.92291235 24.77804852 -21 18 C-27.30596952 19.10938353 -32.37529486 20.93197901 -38 24 C-41.61222185 19.03319495 -44.00212871 15.38857054 -43 9 C-41.16884793 6.38406847 -40.09031634 6.03010545 -37 5 C-35.1855283 4.95201691 -33.36922789 4.9625015 -31.5546875 5.0078125 C-30.47703125 5.02457031 -29.399375 5.04132812 -28.2890625 5.05859375 C-26.03628241 5.10241213 -23.78364329 5.15432384 -21.53125 5.21484375 C-13.42316577 5.32076884 -6.83757119 4.55838079 0 0 Z " fill="#3EB6FA" transform="translate(171,42)"/>
<path d="M0 0 C2.81202186 2.46362977 4.19740219 5.08717313 5.8125 8.4375 C7.39559781 11.71055472 8.98131708 14.96483978 10.6875 18.17578125 C14.46938166 25.3304468 17.13423015 30.53869474 15.0625 38.6875 C12.39165313 42.97704194 9.69497086 45.15467232 5 47 C0.3091599 47.91724832 -3.61431432 47.50114696 -7.875 45.3125 C-11.62827804 42.53507425 -13.52311987 40.70053467 -14.34765625 36.03125 C-14.93898274 27.41911031 -10.23985178 20.98673563 -5.875 13.9375 C-3.12987282 9.47313079 -1.38803078 5.04074334 0 0 Z M-7.3125 28.1875 C-9.49348946 31.82248243 -9.67096636 33.82509823 -9 38 C-6.59475502 41.25415498 -4.89383177 42.69571685 -1.0625 44 C2.74724203 44 4.80498871 43.033189 8 41 C10.45380136 37.31929796 10.81652381 34.27425218 10 30 C7.72090262 26.9394978 6.07086825 25.40157559 2.5 24.0625 C-1.86343732 23.95341407 -4.16799317 25.21296651 -7.3125 28.1875 Z " fill="#FB5758" transform="translate(94,54)"/>
<path d="M0 0 C0.66 0.66 1.32 1.32 2 2 C0.09849908 4.92016213 -1.71878853 7.67484924 -4 10.3125 C-8.04033899 15.74170552 -9.9714644 21.73455559 -11.75561523 28.19677734 C-15.44971121 41.56075562 -20.89610154 51.72643098 -32.9375 59.25 C-34.61267564 60.1889998 -36.29948706 61.10770533 -38 62 C-38.61230469 62.33128906 -39.22460938 62.66257813 -39.85546875 63.00390625 C-46.67248976 66.11896883 -54.63812162 65.74090477 -62 66 C-58.41931491 62.0328533 -56.26338905 61.68229117 -51 61 C-50.34 60.01 -49.68 59.02 -49 58 C-47.313924 57.2726731 -45.62605563 56.5489554 -43.92578125 55.85546875 C-35.51630922 52.11982093 -30.25892604 45.26196889 -26.671875 36.90625 C-25.7131524 34.28664177 -24.81633718 31.66703947 -24 29 C-23.34 29.66 -22.68 30.32 -22 31 C-21.01830524 29.87720538 -20.03972702 28.75168527 -19.0625 27.625 C-18.24458984 26.68527344 -18.24458984 26.68527344 -17.41015625 25.7265625 C-15.93041376 24.04367666 -15.93041376 24.04367666 -15 22 C-14.01 22 -13.02 22 -12 22 C-11.81244141 21.13375 -11.81244141 21.13375 -11.62109375 20.25 C-10.99243058 17.97257869 -10.14673282 16.09481963 -9.0625 14 C-8.72347656 13.34 -8.38445312 12.68 -8.03515625 12 C-7.69355469 11.34 -7.35195312 10.68 -7 10 C-6.33148341 8.66759323 -5.66428253 7.33452274 -5 6 C-5.66 5.34 -6.32 4.68 -7 4 C-3.535 2.02 -3.535 2.02 0 0 Z " fill="#39B5FB" transform="translate(171,42)"/>
<path d="M0 0 C1.5 1.375 1.5 1.375 3 3 C3 3.66 3 4.32 3 5 C3.99 5.33 4.98 5.66 6 6 C8.39353074 12.1727898 9.279116 17.82843794 6.76171875 24.0703125 C2.438228 32.97477236 2.438228 32.97477236 -1 36 C-4.25813633 34.95274189 -5.53606177 33.42983232 -7.1875 30.5625 C-10.37803668 24.29144514 -11.20696643 18.3795639 -9.31640625 11.51953125 C-7.18274585 6.23407374 -4.64082251 3.26967041 0 0 Z " fill="#010101" transform="translate(95,113)"/>
<path d="M0 0 C1.33037532 1.99556299 2.62268277 4.01704853 3.875 6.0625 C5.89324207 8.85242286 6.7988055 9.96735661 10 11 C10.99 11 11.98 11 13 11 C13.66 11 14.32 11 15 11 C15.66 10.01 16.32 9.02 17 8 C17.67804687 8.51949219 18.35609375 9.03898437 19.0546875 9.57421875 C26.07355611 14.8335095 33.28047781 20.11308745 42 22 C42 22.66 42 23.32 42 24 C42.639375 24.12375 43.27875 24.2475 43.9375 24.375 C44.9584375 24.684375 44.9584375 24.684375 46 25 C46.495 25.99 46.495 25.99 47 27 C44.58325776 27.02705308 42.1668206 27.04686438 39.75 27.0625 C38.72712891 27.07506836 38.72712891 27.07506836 37.68359375 27.08789062 C34.30657446 27.10428392 31.22708361 27.05628768 28 26 C28 25.34 28 24.68 28 24 C27.01 24.33 26.02 24.66 25 25 C25 24.34 25 23.68 25 23 C24.45472656 22.86464844 23.90945312 22.72929688 23.34765625 22.58984375 C13.63265762 19.81650226 5.74271645 13.28933773 0 5 C-0.75 2.82421875 -0.75 2.82421875 -1 1 C-0.67 0.67 -0.34 0.34 0 0 Z " fill="#49B3EE" transform="translate(34,81)"/>
<path d="M0 0 C2.81202186 2.46362977 4.19740219 5.08717313 5.8125 8.4375 C7.39559781 11.71055472 8.98131708 14.96483978 10.6875 18.17578125 C14.46938166 25.3304468 17.13423015 30.53869474 15.0625 38.6875 C12.39165313 42.97704194 9.69497086 45.15467232 5 47 C0.28988083 47.92101816 -3.64886223 47.48351165 -7.9375 45.3125 C-11.06145556 42.95359478 -12.06600348 41.73598609 -13 38 C-10 39 -10 39 -9 41 C-3.90757193 42.63964039 0.52396532 43.50897748 5.625 41.75 C8.08013868 40.2187036 8.08013868 40.2187036 9 38 C9.06996014 36.29297265 9.08440154 34.58331997 9.0625 32.875 C9.05347656 31.96492188 9.04445313 31.05484375 9.03515625 30.1171875 C9.02355469 29.41851562 9.01195313 28.71984375 9 28 C9.99 28.33 10.98 28.66 12 29 C11.29920746 25.54588501 11.29920746 25.54588501 10 22 C7.99983534 20.79117904 7.99983534 20.79117904 6 20 C5.4765625 18.27734375 5.4765625 18.27734375 5 16 C4.48753558 14.247531 3.96637488 12.49758654 3.4375 10.75 C3.16808594 9.85796875 2.89867188 8.9659375 2.62109375 8.046875 C2.41613281 7.37140625 2.21117188 6.6959375 2 6 C1.34 6 0.68 6 0 6 C-0.18175781 6.59167969 -0.36351563 7.18335938 -0.55078125 7.79296875 C-3.25850509 16.30494164 -3.25850509 16.30494164 -6 20 C-6.66 20 -7.32 20 -8 20 C-5.33333333 13.33333333 -2.66666667 6.66666667 0 0 Z " fill="#D97374" transform="translate(94,54)"/>
<path d="M0 0 C0.99 0 1.98 0 3 0 C3.66 2.64 4.32 5.28 5 8 C4.34 8 3.68 8 3 8 C3.33 10.31 3.66 12.62 4 15 C2 14 2 14 0.875 10.9375 C0.58625 9.968125 0.2975 8.99875 0 8 C-12.52712883 21.60194165 -17.17252036 32.40230567 -17 51 C-21.02054119 44.96918822 -19.1933358 35.92134765 -18 29 C-16.9375 26 -16.9375 26 -16 24 C-16.99 24 -17.98 24 -19 24 C-19.66 25.32 -20.32 26.64 -21 28 C-21.33 27.34 -21.66 26.68 -22 26 C-18.14088104 19.18046102 -13.17626038 13.91597694 -7.58325195 8.51879883 C-6.76280396 7.72638794 -6.76280396 7.72638794 -5.92578125 6.91796875 C-5.40838379 6.4182959 -4.89098633 5.91862305 -4.35791016 5.40380859 C-2.84934497 3.91325195 -2.84934497 3.91325195 -1.29296875 1.61328125 C-0.86628906 1.08089844 -0.43960938 0.54851563 0 0 Z " fill="#57B6EC" transform="translate(94,42)"/>
<path d="M0 0 C0.66 0.33 1.32 0.66 2 1 C1.34 2.98 0.68 4.96 0 7 C0.99 7 1.98 7 3 7 C3.226875 6.21625 3.45375 5.4325 3.6875 4.625 C5 2 5 2 7.625 0.6875 C8.40875 0.460625 9.1925 0.23375 10 0 C6.01642731 9.03206086 -3.42351031 13.21363863 -12 17 C-15.71279469 18.23759823 -19.31306346 18.35608897 -23.1875 18.5625 C-23.93708984 18.60568359 -24.68667969 18.64886719 -25.45898438 18.69335938 C-27.30578375 18.79922685 -29.15286834 18.9000976 -31 19 C-27.41931491 15.0328533 -25.26338905 14.68229117 -20 14 C-19.34 13.01 -18.68 12.02 -18 11 C-13.30846894 8.60823906 -9.28617772 7.53940589 -4 7 C-3.71125 6.21625 -3.4225 5.4325 -3.125 4.625 C-2 2 -2 2 0 0 Z " fill="#45B2F1" transform="translate(140,89)"/>
<path d="M0 0 C2.4210963 0.37604262 3.68283028 0.64891328 5.3515625 2.49609375 C5.98191406 3.45708984 5.98191406 3.45708984 6.625 4.4375 C9.92213251 9.13676361 13.87704387 12.94774387 18.0234375 16.8984375 C20 19 20 19 20 21 C16.06628156 19.83776501 13.16902664 18.60312902 10 16 C9.34 15.67 8.68 15.34 8 15 C7.855625 14.05125 7.71125 13.1025 7.5625 12.125 C6.96743554 8.81908636 6.53447568 8.02758055 4 6 C3.34 5.34 2.68 4.68 2 4 C-1.80115905 6.70304644 -4.02932972 8.29577289 -5.1875 12.875 C-6.82180009 18.02109969 -10.64713441 19.92124488 -15.14453125 22.5234375 C-20.28101627 25.1795132 -25.05502404 27.5573415 -31 27 C-31 26.01 -31 25.02 -31 24 C-30.24976563 23.81566406 -29.49953125 23.63132813 -28.7265625 23.44140625 C-16.47121262 19.96854262 -8.85597993 11.70203265 -1 2 C-0.67 1.34 -0.34 0.68 0 0 Z " fill="#060607" transform="translate(93,110)"/>
<path d="M0 0 C2.475 0.99 2.475 0.99 5 2 C4.67 2.99 4.34 3.98 4 5 C4.66 4.67 5.32 4.34 6 4 C7.54023996 3.93049459 9.08334988 3.91547643 10.625 3.9375 C11.85089844 3.95103516 11.85089844 3.95103516 13.1015625 3.96484375 C14.04128906 3.98224609 14.04128906 3.98224609 15 4 C15.33 4.99 15.66 5.98 16 7 C14.948125 6.79375 13.89625 6.5875 12.8125 6.375 C8.93262204 5.99337266 7.31379488 6.06695298 4 8 C1.27184301 10.54000823 1.01507663 11.78515803 0.75 15.5625 C0.85657901 18.98070596 0.85657901 18.98070596 2 22 C2.66 22.33 3.32 22.66 4 23 C2.35 22.67 0.7 22.34 -1 22 C-1 21.34 -1 20.68 -1 20 C-2.32 19.67 -3.64 19.34 -5 19 C-5.6212008 11.29711007 -3.8741903 6.6276327 0 0 Z " fill="#F55959" transform="translate(85,73)"/>
<path d="M0 0 C1.18955096 3.70805338 1.06510844 7.19261731 1 11.0625 C0.88452369 16.12401248 0.88452369 16.12401248 2 21 C2.66 18.03 3.32 15.06 4 12 C4.33 12 4.66 12 5 12 C5.02578125 12.845625 5.0515625 13.69125 5.078125 14.5625 C5.5823314 24.64662802 7.63953247 30.27657514 14 38 C14 38.66 14 39.32 14 40 C6.89185229 37.75660518 4.1030312 31.81866192 0.6640625 25.57421875 C-2.68628307 18.31513668 -3.68271762 9.7462913 -0.9765625 2.11328125 C-0.65429688 1.41589844 -0.33203125 0.71851563 0 0 Z " fill="#111316" transform="translate(61,63)"/>
<path d="M0 0 C3.74970041 1.87485021 4.54923106 6.42205546 5.94921875 10.171875 C8.32234083 18.81744987 7.86367846 27.54144795 5 36 C4.34 36.99 3.68 37.98 3 39 C4.65 38.01 6.3 37.02 8 36 C6.58226538 39.54433654 5.32387762 40.33806119 2 42 C0.73195434 44.0335948 0.73195434 44.0335948 0 46 C-1.32 46 -2.64 46 -4 46 C-2.19752161 42.31120701 -0.1723788 38.77349917 1.87890625 35.21875 C5.51350645 28.02553428 5.22064777 18.52909641 2.8828125 10.96875 C1.71801567 7.592613 0.39846433 4.28639117 -1 1 C-0.67 0.67 -0.34 0.34 0 0 Z " fill="#0E1113" transform="translate(120,58)"/>
<path d="M0 0 C0.99 0 1.98 0 3 0 C6.49478504 5.60007723 5.64220247 12.67871292 5 19 C3.72921888 22.93119341 2.05408889 26.42386491 0 30 C-0.33 30.66 -0.66 31.32 -1 32 C-1.99 32 -2.98 32 -4 32 C-3.52140759 30.39566191 -3.04210442 28.79153584 -2.5625 27.1875 C-2.29566406 26.29417969 -2.02882813 25.40085937 -1.75390625 24.48046875 C-1.19612127 22.64526945 -0.60655425 20.81966274 0 19 C0.0806622 17.51876453 0.10761193 16.03417796 0.09765625 14.55078125 C0.09443359 13.70322266 0.09121094 12.85566406 0.08789062 11.98242188 C0.07951172 11.10134766 0.07113281 10.22027344 0.0625 9.3125 C0.05798828 8.41982422 0.05347656 7.52714844 0.04882812 6.60742188 C0.03704983 4.40488013 0.02060164 2.20247401 0 0 Z " fill="#3AB4FA" transform="translate(112,71)"/>
<path d="M0 0 C3.46533715 0.63438666 5.79874213 2.01368054 8.6875 4 C9.47511719 4.53625 10.26273438 5.0725 11.07421875 5.625 C13 7 13 7 14 8 C14.27314815 13.73611111 14.27314815 13.73611111 14 16 C13.34 16.66 12.68 17.32 12 18 C11.49210937 17.66226563 10.98421875 17.32453125 10.4609375 16.9765625 C6.40088512 14.34589186 2.712194 12.29585335 -2 11 C-2 10.67 -2 10.34 -2 10 C-1.0925 10.0825 -0.185 10.165 0.75 10.25 C4.10041408 10.31024799 4.10041408 10.31024799 6.375 8 C6.91125 7.34 7.4475 6.68 8 6 C6.68 6.33 5.36 6.66 4 7 C3.896875 6.360625 3.79375 5.72125 3.6875 5.0625 C3.3471875 4.0415625 3.3471875 4.0415625 3 3 C2.01 2.67 1.02 2.34 0 2 C0 1.34 0 0.68 0 0 Z " fill="#43B7F4" transform="translate(48,47)"/>
<path d="M0 0 C0.99 0 1.98 0 3 0 C5.52362052 3.78543078 5.08065936 5.50044298 4.48046875 9.8359375 C3.88123158 12.5349407 3.08004199 14.15996285 1 16 C0.01 16 -0.98 16 -2 16 C-2.99 18.475 -2.99 18.475 -4 21 C-4.99 21 -5.98 21 -7 21 C-6.52651586 16.8333396 -5.95303159 14.07115285 -3 11 C-2.34 11 -1.68 11 -1 11 C-0.67 7.37 -0.34 3.74 0 0 Z " fill="#39B5FC" transform="translate(147,75)"/>
<path d="M0 0 C-3.90970072 2.60646715 -6.99950297 2.41467207 -11.6015625 2.65625 C-12.39304687 2.7696875 -13.18453125 2.883125 -14 3 C-14.33 3.66 -14.66 4.32 -15 5 C-15.99 4.67 -16.98 4.34 -18 4 C-18.33 4.66 -18.66 5.32 -19 6 C-19 5.34 -19 4.68 -19 4 C-20.32 4 -21.64 4 -23 4 C-21.88820837 7.33537489 -20.52588702 8.63707344 -18 11 C-20 12 -20 12 -21.91015625 11.3984375 C-27.75523676 8.61910702 -27.75523676 8.61910702 -29.0625 5.3125 C-29 3 -29 3 -28 2 C-23.71041632 1.29659482 -19.3808833 0.86670838 -15.0625 0.375 C-13.23428711 0.15457031 -13.23428711 0.15457031 -11.36914062 -0.0703125 C-9.62600586 -0.27140625 -9.62600586 -0.27140625 -7.84765625 -0.4765625 C-6.77523682 -0.60111816 -5.70281738 -0.72567383 -4.59790039 -0.85400391 C-2 -1 -2 -1 0 0 Z " fill="#0C171E" transform="translate(128,107)"/>
<path d="M0 0 C2.4210963 0.37604262 3.68283028 0.64891328 5.3515625 2.49609375 C5.98191406 3.45708984 5.98191406 3.45708984 6.625 4.4375 C9.92213251 9.13676361 13.87704387 12.94774387 18.0234375 16.8984375 C20 19 20 19 20 21 C16.06628156 19.83776501 13.16902664 18.60312902 10 16 C9.34 15.67 8.68 15.34 8 15 C7.855625 14.05125 7.71125 13.1025 7.5625 12.125 C6.96743554 8.81908636 6.53447568 8.02758055 4 6 C3.34 5.34 2.68 4.68 2 4 C1.05125 4.78375 0.1025 5.5675 -0.875 6.375 C-1.40867187 6.81585938 -1.94234375 7.25671875 -2.4921875 7.7109375 C-3.71051161 8.75250992 -4.86660097 9.86660097 -6 11 C-5.39305845 7.84669446 -4.3583335 5.81111133 -2.4375 3.25 C-1.98246094 2.63640625 -1.52742188 2.0228125 -1.05859375 1.390625 C-0.70925781 0.93171875 -0.35992187 0.4728125 0 0 Z " fill="#15181A" transform="translate(93,110)"/>
<path d="M0 0 C2.64 0.66 5.28 1.32 8 2 C8 2.66 8 3.32 8 4 C8.639375 4.12375 9.27875 4.2475 9.9375 4.375 C10.9584375 4.684375 10.9584375 4.684375 12 5 C12.33 5.66 12.66 6.32 13 7 C10.58325776 7.02705308 8.1668206 7.04686438 5.75 7.0625 C4.72712891 7.07506836 4.72712891 7.07506836 3.68359375 7.08789062 C0.30657446 7.10428392 -2.77291639 7.05628768 -6 6 C-6 5.34 -6 4.68 -6 4 C-6.99 4.33 -7.98 4.66 -9 5 C-9 4.34 -9 3.68 -9 3 C-10.65 2.67 -12.3 2.34 -14 2 C-10.42355152 0.7619986 -7.66305234 1.25073929 -4 2 C-4 2.66 -4 3.32 -4 4 C-3.01 3.67 -2.02 3.34 -1 3 C-0.67 2.01 -0.34 1.02 0 0 Z " fill="#3B8CB6" transform="translate(68,101)"/>
<path d="M0 0 C0.33 0 0.66 0 1 0 C0.91249004 2.70979124 0.80555107 5.41650748 0.6875 8.125 C0.65366211 9.26582031 0.65366211 9.26582031 0.61914062 10.4296875 C0.38777001 15.30950413 -0.44316328 18.70890138 -3 23 C-2.01 23.33 -1.02 23.66 0 24 C-4.84060277 27.06242216 -8.29290936 28.53411505 -14 29 C-14 28.01 -14 27.02 -14 26 C-12.390625 24.9296875 -12.390625 24.9296875 -10.25 23.875 C-5.23718156 20.89033602 -3.56155554 17.52297538 -2 12 C-1.16700983 8.01696654 -0.51893221 4.03538073 0 0 Z " fill="#72AFDB" transform="translate(111,80)"/>
<path d="M0 0 C0.66 0.66 1.32 1.32 2 2 C0.09849908 4.92016213 -1.71878853 7.67484924 -4 10.3125 C-8.9988516 17.02970683 -11.01971562 24.97384741 -13 33 C-13.33 33 -13.66 33 -14 33 C-14.54730048 24.24319232 -10.95295813 17.61784643 -7 10 C-6.33147049 8.66759972 -5.66430365 7.33451223 -5 6 C-5.66 5.34 -6.32 4.68 -7 4 C-4.69 2.68 -2.38 1.36 0 0 Z " fill="#60B4E6" transform="translate(171,42)"/>
<path d="M0 0 C0.66 0.99 1.32 1.98 2 3 C6.00463048 8.49680171 9.74855284 11.30541071 16 14 C14.30859375 15.12890625 14.30859375 15.12890625 12 16 C5.99919976 14.19488123 1.0413686 10.71493003 -3 6 C-2.67 5.34 -2.34 4.68 -2 4 C-1.34 4.33 -0.68 4.66 0 5 C0 3.35 0 1.7 0 0 Z " fill="#5AB0E5" transform="translate(77,93)"/>
<path d="M0 0 C5.16068139 -0.10321363 9.90137129 0.15022855 15 1 C20.4471786 1.26082255 25.63004277 0.91403527 31 0 C31 1.32 31 2.64 31 4 C29.34385343 4.38218767 27.67542976 4.71395102 26 5 C25.67 4.67 25.34 4.34 25 4 C23.06206134 4.00600911 21.12422199 4.05607751 19.1875 4.125 C12.4000423 4.2000825 6.46910856 2.95821665 0 1 C0 0.67 0 0.34 0 0 Z " fill="#0D0D0D" transform="translate(134,122)"/>
<path d="M0 0 C1 2 1 2 0.0625 5.125 C-0.288125 6.07375 -0.63875 7.0225 -1 8 C-0.01 7.01 0.98 6.02 2 5 C2.66 5.33 3.32 5.66 4 6 C3.67 6.66 3.34 7.32 3 8 C2.86642547 11.67329964 2.8328432 14.49852959 4 18 C4.66 18.33 5.32 18.66 6 19 C4.35 18.67 2.7 18.34 1 18 C1 17.34 1 16.68 1 16 C-0.32 15.67 -1.64 15.34 -3 15 C-3.35050464 9.158256 -3.16727335 5.1468192 0 0 Z " fill="#DE6261" transform="translate(83,77)"/>
<path d="M0 0 C0 0.66 0 1.32 0 2 C-0.66 2 -1.32 2 -2 2 C-2.03738281 2.61488281 -2.07476562 3.22976562 -2.11328125 3.86328125 C-2.17902344 4.67152344 -2.24476563 5.47976562 -2.3125 6.3125 C-2.37050781 7.11300781 -2.42851562 7.91351563 -2.48828125 8.73828125 C-3.08206694 11.36272334 -3.95780294 12.30820672 -6 14 C-5.125 6.375 -5.125 6.375 -4 3 C-10.30596952 4.10938353 -15.37529486 5.93197901 -21 9 C-21.33 7.68 -21.66 6.36 -22 5 C-21.236875 4.87625 -20.47375 4.7525 -19.6875 4.625 C-16.79732864 4.11897208 -16.79732864 4.11897208 -14 2 C-11.66015625 1.3671875 -11.66015625 1.3671875 -9.0625 0.875 C-8.20785156 0.70742188 -7.35320312 0.53984375 -6.47265625 0.3671875 C-4 0 -4 0 0 0 Z " fill="#53B7E9" transform="translate(154,57)"/>
<path d="M0 0 C-6.9853458 3.24319627 -14.10952282 5.96545096 -21.328125 8.6328125 C-24.23732144 9.71602394 -27.12500117 10.82994234 -30 12 C-30.66 11.34 -31.32 10.68 -32 10 C-28.67109176 8.53141711 -25.33614952 7.07704906 -22 5.625 C-21.06542969 5.2125 -20.13085938 4.8 -19.16796875 4.375 C-5.13181516 -1.71060505 -5.13181516 -1.71060505 0 0 Z " fill="#131618" transform="translate(171,92)"/>
<path d="M0 0 C6.27 0 12.54 0 19 0 C17.56862745 5.7254902 17.56862745 5.7254902 16 8 C13.375 8.75 13.375 8.75 11 9 C10 6 10 6 11 3 C7.37 2.34 3.74 1.68 0 1 C0 0.67 0 0.34 0 0 Z " fill="#171C1D" transform="translate(72,108)"/>
<path d="M0 0 C1.33065428 4.47953081 1.05102362 8.47251364 0 13 C-1.78508947 15.89307603 -3.00460033 17.51738198 -6.0625 19 C-8.76283847 20.39372308 -9.61296063 22.3646252 -11 25 C-12.32 24.67 -13.64 24.34 -15 24 C-14.2575 23.278125 -13.515 22.55625 -12.75 21.8125 C-6.41282957 15.33130297 -2.60214847 8.67382822 0 0 Z " fill="#50B7EE" transform="translate(147,71)"/>
<path d="M0 0 C0.99 0 1.98 0 3 0 C9.42396235 7.33894808 10.22203008 15.73646669 10.265625 25.109375 C10 28 10 28 8 31 C8.33 26.71 8.66 22.42 9 18 C8.34 18 7.68 18 7 18 C6.87044922 17.14728516 6.87044922 17.14728516 6.73828125 16.27734375 C5.64729464 10.2819219 3.71856844 6.79499615 0 2 C0 1.34 0 0.68 0 0 Z " fill="#69B8EC" transform="translate(103,62)"/>
<path d="M0 0 C5.12583611 -0.10251672 9.94997778 -0.03590199 15 1 C15 1.66 15 2.32 15 3 C12.69 3 10.38 3 8 3 C8.33 3.99 8.66 4.98 9 6 C3.50847458 5.38983051 3.50847458 5.38983051 1.125 3.5625 C0 2 0 2 0 0 Z " fill="#0A0A0A" transform="translate(24,123)"/>
<path d="M0 0 C1.32 0.33 2.64 0.66 4 1 C2.35 2.32 0.7 3.64 -1 5 C1.31 5 3.62 5 6 5 C2.27933528 7.48044315 -0.86540474 7.44381173 -5.1875 7.625 C-5.93708984 7.66367188 -6.68667969 7.70234375 -7.45898438 7.7421875 C-9.30559199 7.83628216 -11.1527619 7.91922319 -13 8 C-9.41931491 4.0328533 -7.26338905 3.68229117 -2 3 C-1.34 2.01 -0.68 1.02 0 0 Z " fill="#3189BB" transform="translate(122,100)"/>
<path d="M0 0 C0.99 0 1.98 0 3 0 C3.66 2.64 4.32 5.28 5 8 C4.34 8 3.68 8 3 8 C3.33 10.31 3.66 12.62 4 15 C2 14 2 14 1.25390625 12.1875 C0.79320467 10.72991309 0.33486771 9.27157666 -0.12109375 7.8125 C-0.41113281 7.214375 -0.70117188 6.61625 -1 6 C-1.99 5.67 -2.98 5.34 -4 5 C-2.1875 2.5 -2.1875 2.5 0 0 Z " fill="#76C1EB" transform="translate(94,42)"/>
<path d="M0 0 C2.12749234 3.19123852 3.80763537 6.50674408 5.5 9.9375 C5.80808594 10.55818359 6.11617187 11.17886719 6.43359375 11.81835938 C7.29042687 13.54489649 8.14527939 15.27241612 9 17 C9.66581292 18.33375986 10.33199766 19.66733534 11 21 C8.69 21 6.38 21 4 21 C4 20.34 4 19.68 4 19 C4.66 19 5.32 19 6 19 C5.566875 18.13117188 5.13375 17.26234375 4.6875 16.3671875 C4.130625 15.21476562 3.57375 14.06234375 3 12.875 C2.443125 11.73804687 1.88625 10.60109375 1.3125 9.4296875 C-0.00504969 5.98680467 -0.26577282 3.64330238 0 0 Z " fill="#57B1E8" transform="translate(39,68)"/>
<path d="M0 0 C3.46533715 0.63438666 5.79874213 2.01368054 8.6875 4 C9.47511719 4.53625 10.26273438 5.0725 11.07421875 5.625 C13 7 13 7 14 8 C14.27314815 13.73611111 14.27314815 13.73611111 14 16 C13.34 16.66 12.68 17.32 12 18 C11.34 17.01 10.68 16.02 10 15 C10.99 15 11.98 15 13 15 C13 13.02 13 11.04 13 9 C12.01 8.67 11.02 8.34 10 8 C10 7.34 10 6.68 10 6 C8.02 6.33 6.04 6.66 4 7 C3.896875 6.360625 3.79375 5.72125 3.6875 5.0625 C3.460625 4.381875 3.23375 3.70125 3 3 C2.01 2.67 1.02 2.34 0 2 C0 1.34 0 0.68 0 0 Z " fill="#54B3EF" transform="translate(48,47)"/>
<path d="M0 0 C0.66 0.99 1.32 1.98 2 3 C1.01 4.485 1.01 4.485 0 6 C1.65 5.01 3.3 4.02 5 3 C3.58226538 6.54433654 2.32387762 7.33806119 -1 9 C-2.26804566 11.0335948 -2.26804566 11.0335948 -3 13 C-4.32 13 -5.64 13 -7 13 C-5.54331217 10.03216871 -3.98767914 7.13584687 -2.375 4.25 C-1.92898437 3.45078125 -1.48296875 2.6515625 -1.0234375 1.828125 C-0.68570313 1.22484375 -0.34796875 0.6215625 0 0 Z " fill="#0B1D2C" transform="translate(123,91)"/>
<path d="M0 0 C-0.26 5.28666667 -0.26 5.28666667 -1 8 C-3.78103724 10.33005823 -6.45316599 11.34317889 -10 12 C-10 9 -10 9 -8.06640625 6.73828125 C-7.24011719 5.93777344 -6.41382812 5.13726562 -5.5625 4.3125 C-4.73878906 3.50425781 -3.91507812 2.69601563 -3.06640625 1.86328125 C-1 0 -1 0 0 0 Z " fill="#0E0E0F" transform="translate(87,119)"/>
<path d="M0 0 C1.5 1.3125 1.5 1.3125 3 3 C3 3.99 3 4.98 3 6 C2.01 6 1.02 6 0 6 C-0.18175781 6.59167969 -0.36351563 7.18335938 -0.55078125 7.79296875 C-3.25850509 16.30494164 -3.25850509 16.30494164 -6 20 C-6.66 20 -7.32 20 -8 20 C-5.33333333 13.33333333 -2.66666667 6.66666667 0 0 Z " fill="#CB7071" transform="translate(94,54)"/>
<path d="M0 0 C6.21530564 -0.54520225 11.09324783 0.41197558 16.9375 2.375 C17.60015869 2.59631592 18.26281738 2.81763184 18.94555664 3.0456543 C21.83423856 4.06017398 23.80912285 4.80912285 26 7 C20.194303 6.31465992 14.69920838 4.96776988 9.0625 3.4375 C8.18787109 3.20353516 7.31324219 2.96957031 6.41210938 2.72851562 C4.27374275 2.15594751 2.13644097 1.57970405 0 1 C0 0.67 0 0.34 0 0 Z " fill="#0E1316" transform="translate(13,91)"/>
<path d="M0 0 C0.99 0 1.98 0 3 0 C4.38671875 1.53125 4.38671875 1.53125 5.6875 3.5 C6.12449219 4.1496875 6.56148438 4.799375 7.01171875 5.46875 C7.33785156 5.9740625 7.66398437 6.479375 8 7 C7.34 7 6.68 7 6 7 C6 8.65 6 10.3 6 12 C1.30021142 9.10782241 1.30021142 9.10782241 0.4453125 5.953125 C0.21402785 3.97669255 0.09937182 1.98743631 0 0 Z " fill="#58B1EC" transform="translate(97,50)"/>
<path d="M0 0 C8.36628849 7.05024311 8.36628849 7.05024311 11 10 C11 10.66 11 11.32 11 12 C4.29787234 10.06382979 4.29787234 10.06382979 2 7 C2 6.34 2 5.68 2 5 C1.34 5 0.68 5 0 5 C0 3.35 0 1.7 0 0 Z " fill="#232324" transform="translate(102,119)"/>
<path d="M0 0 C0.33 0 0.66 0 1 0 C1.56139793 9.35663215 1.87486661 17.13926298 -4 25 C-4.99 25.66 -5.98 26.32 -7 27 C-6.01876076 23.07504305 -4.95904671 19.81896465 -2.9375 16.3125 C-0.20998726 11.17179754 -0.19059355 5.71780646 0 0 Z " fill="#52A6D7" transform="translate(118,76)"/>
<path d="M0 0 C1.175625 0.5259375 1.175625 0.5259375 2.375 1.0625 C3.674375 1.5265625 3.674375 1.5265625 5 2 C5.66 1.67 6.32 1.34 7 1 C7.66 1.33 8.32 1.66 9 2 C8.67 3.65 8.34 5.3 8 7 C7.01 7 6.02 7 5 7 C5 6.34 5 5.68 5 5 C4.071875 5.061875 3.14375 5.12375 2.1875 5.1875 C-1 5 -1 5 -2.875 3.5 C-3.24625 3.005 -3.6175 2.51 -4 2 C-2.68 2 -1.36 2 0 2 C0 1.34 0 0.68 0 0 Z " fill="#39B7FA" transform="translate(59,98)"/>
<path d="M0 0 C0.66 0 1.32 0 2 0 C2 1.65 2 3.3 2 5 C2.66 5 3.32 5 4 5 C4.69761537 7.60183588 5.38337774 10.20583602 6.0625 12.8125 C6.26166016 13.55048828 6.46082031 14.28847656 6.66601562 15.04882812 C8.11328125 20.66015625 8.11328125 20.66015625 7 24 C3.89385635 16.13215391 1.7364998 8.27468466 0 0 Z " fill="#64BAEA" transform="translate(25,58)"/>
<path d="M0 0 C-0.99 0.495 -0.99 0.495 -2 1 C-2.2165625 1.8971875 -2.2165625 1.8971875 -2.4375 2.8125 C-3.10600597 5.41224542 -4.31063312 6.94337945 -6 9 C-6.33 7.02 -6.66 5.04 -7 3 C-10.96 2.67 -14.92 2.34 -19 2 C-19 1.67 -19 1.34 -19 1 C-12.62694402 0.25492456 -6.41688675 -0.10349817 0 0 Z " fill="#52B8F2" transform="translate(168,47)"/>
<path d="M0 0 C2.64 0.33 5.28 0.66 8 1 C6.68 1.33 5.36 1.66 4 2 C4.433125 2.721875 4.86625 3.44375 5.3125 4.1875 C7.65625 8.09375 7.65625 8.09375 10 12 C6.78475695 10.59155282 4.67816132 8.89655214 2.25 6.375 C1.63640625 5.74335937 1.0228125 5.11171875 0.390625 4.4609375 C-0.06828125 3.97882813 -0.5271875 3.49671875 -1 3 C-0.67 2.01 -0.34 1.02 0 0 Z " fill="#0A0A0C" transform="translate(9,89)"/>
<path d="M0 0 C-1.70979248 1.70979248 -4.03930663 1.32834799 -6.375 1.5 C-9.52020509 1.73236344 -11.99627907 1.99875969 -15 3 C-16.72795352 3.06802967 -18.45835365 3.08495645 -20.1875 3.0625 C-21.08855469 3.05347656 -21.98960938 3.04445313 -22.91796875 3.03515625 C-23.60503906 3.02355469 -24.29210937 3.01195313 -25 3 C-25 3.66 -25 4.32 -25 5 C-26.32 4.67 -27.64 4.34 -29 4 C-28.67 3.34 -28.34 2.68 -28 2 C-25.53149414 1.48168945 -25.53149414 1.48168945 -22.28515625 1.11328125 C-20.54395508 0.9131543 -20.54395508 0.9131543 -18.76757812 0.70898438 C-16.93356445 0.51272461 -16.93356445 0.51272461 -15.0625 0.3125 C-13.84369141 0.17005859 -12.62488281 0.02761719 -11.36914062 -0.11914062 C-2.26758078 -1.13379039 -2.26758078 -1.13379039 0 0 Z " fill="#224D64" transform="translate(128,107)"/>
<path d="M0 0 C4.66666667 2.33333333 9.33333333 4.66666667 14 7 C14 7.66 14 8.32 14 9 C10.2397015 8.41892368 7.46964968 7.34800504 4.1875 5.4375 C3.39730469 4.98246094 2.60710938 4.52742188 1.79296875 4.05859375 C1.20128906 3.70925781 0.60960938 3.35992187 0 3 C0 2.01 0 1.02 0 0 Z " fill="#0C0C0D" transform="translate(27,106)"/>
<path d="M0 0 C1.4540625 0.0309375 1.4540625 0.0309375 2.9375 0.0625 C0.77485988 4.04631075 -1.77461176 6.95233545 -5.0625 10.0625 C-6.0525 9.7325 -7.0425 9.4025 -8.0625 9.0625 C-6.0625 7.0625 -4.0625 5.0625 -2.0625 3.0625 C-2.7225 2.4025 -3.3825 1.7425 -4.0625 1.0625 C-3.0625 0.0625 -3.0625 0.0625 0 0 Z " fill="#161616" transform="translate(178.0625,89.9375)"/>
<path d="M0 0 C2 2.5 2 2.5 4 5 C5.11375 6.3303125 5.11375 6.3303125 6.25 7.6875 C8 10 8 10 8 12 C4.40663529 11.00184314 3.04274621 10.05174542 0.625 7.125 C-1 4 -1 4 -0.75 1.625 C-0.5025 1.08875 -0.255 0.5525 0 0 Z " fill="#244E60" transform="translate(67,91)"/>
<path d="M0 0 C-1.875 4.875 -1.875 4.875 -3 6 C-4.66617115 6.04063832 -6.33388095 6.042721 -8 6 C-6.53781513 1.3697479 -6.53781513 1.3697479 -4 -0.375 C-2 -1 -2 -1 0 0 Z " fill="#58B7ED" transform="translate(94,48)"/>
<path d="M0 0 C0.66 0 1.32 0 2 0 C1.7834375 0.98226562 1.7834375 0.98226562 1.5625 1.984375 C0.12092162 9.07213534 -0.22683527 15.77907722 0 23 C-4.0360945 16.94585825 -2.15761543 7.94569258 -1 1 C-0.67 0.67 -0.34 0.34 0 0 Z " fill="#6BAED9" transform="translate(77,70)"/>
<path d="M0 0 C-4.7975732 3.26643281 -8.0881688 4.44389313 -13.88671875 4.43359375 C-16 4 -16 4 -20 1 C-16.37 1.66 -12.74 2.32 -9 3 C-9 2.34 -9 1.68 -9 1 C-5.57367167 -0.61798838 -3.61944899 -1.34053666 0 0 Z " fill="#D27F81" transform="translate(106,97)"/>
<path d="M0 0 C0.66 0 1.32 0 2 0 C5.06242216 4.84060277 6.53411505 8.29290936 7 14 C6.01 14 5.02 14 4 14 C3.86722656 13.44828125 3.73445313 12.8965625 3.59765625 12.328125 C2.94339359 9.77949398 2.19964936 7.26840657 1.4375 4.75 C1.16808594 3.85796875 0.89867188 2.9659375 0.62109375 2.046875 C0.41613281 1.37140625 0.21117188 0.6959375 0 0 Z " fill="#E36764" transform="translate(96,60)"/>
<path d="M0 0 C5.28 0.33 10.56 0.66 16 1 C16 1.33 16 1.66 16 2 C10.555 2.495 10.555 2.495 5 3 C5.66 4.32 6.32 5.64 7 7 C5.82780457 6.21654285 4.66236332 5.42297164 3.5 4.625 C2.8503125 4.18414062 2.200625 3.74328125 1.53125 3.2890625 C1.0259375 2.86367188 0.520625 2.43828125 0 2 C0 1.34 0 0.68 0 0 Z " fill="#69AFDB" transform="translate(13,42)"/>
<path d="M0 0 C6.27 0 12.54 0 19 0 C18.67 1.32 18.34 2.64 18 4 C12.06 3.01 6.12 2.02 0 1 C0 0.67 0 0.34 0 0 Z " fill="#2C4C5D" transform="translate(72,108)"/>
<path d="M0 0 C0.66 0 1.32 0 2 0 C-0.70615034 9.59453303 -0.70615034 9.59453303 -5 13 C-4.34 10.03 -3.68 7.06 -3 4 C-2.34 4 -1.68 4 -1 4 C-0.67 2.68 -0.34 1.36 0 0 Z " fill="#59B6E5" transform="translate(155,76)"/>
<path d="M0 0 C0.33 0.66 0.66 1.32 1 2 C-3.455 2.495 -3.455 2.495 -8 3 C-7.67 4.32 -7.34 5.64 -7 7 C-6.34 7 -5.68 7 -5 7 C-5.33 7.99 -5.66 8.98 -6 10 C-9.36794152 7.75470565 -9.71057265 6.68407814 -11 3 C-11.33 2.34 -11.66 1.68 -12 1 C-6.06 0.505 -6.06 0.505 0 0 Z " fill="#50B7F5" transform="translate(29,43)"/>
<path d="M0 0 C3.3 1.65 6.6 3.3 10 5 C8.02 5.99 8.02 5.99 6 7 C2.25 5.625 2.25 5.625 -1 4 C-0.67 2.68 -0.34 1.36 0 0 Z " fill="#5EABD5" transform="translate(83,102)"/>
<path d="M0 0 C0.33 0 0.66 0 1 0 C1.66 5.61 2.32 11.22 3 17 C-1 15 -1 15 -2 12 C-1.34 12 -0.68 12 0 12 C0 8.04 0 4.08 0 0 Z " fill="#1A2529" transform="translate(65,78)"/>
<path d="M0 0 C1.21236328 0.01353516 1.21236328 0.01353516 2.44921875 0.02734375 C3.37154297 0.04474609 3.37154297 0.04474609 4.3125 0.0625 C4.6425 1.0525 4.9725 2.0425 5.3125 3.0625 C3.7346875 2.753125 3.7346875 2.753125 2.125 2.4375 C-1.72718075 2.05859698 -3.3241741 2.33278954 -6.6875 4.0625 C-7.6775 4.5575 -7.6775 4.5575 -8.6875 5.0625 C-8.375 3.125 -8.375 3.125 -7.6875 1.0625 C-4.80538698 0.10179566 -2.98899956 -0.04331883 0 0 Z " fill="#DF6967" transform="translate(95.6875,76.9375)"/>
<path d="M0 0 C0 3 0 3 -1.75 4.82421875 C-2.4925 5.43910156 -3.235 6.05398437 -4 6.6875 C-4.7425 7.31011719 -5.485 7.93273437 -6.25 8.57421875 C-6.8275 9.04472656 -7.405 9.51523438 -8 10 C-8.33 9.01 -8.66 8.02 -9 7 C-8.01 7 -7.02 7 -6 7 C-5.7525 6.21625 -5.505 5.4325 -5.25 4.625 C-3.84610901 1.67682892 -2.99324263 1.0975223 0 0 Z " fill="#55ACD9" transform="translate(149,89)"/>
<path d="M0 0 C2.67927341 4.01891012 2.15601248 6.24161923 2 11 C-0.0625 9.375 -0.0625 9.375 -2 7 C-1.6875 1.6875 -1.6875 1.6875 0 0 Z " fill="#47A1DC" transform="translate(130,51)"/>
<path d="M0 0 C4.20390632 1.50139512 5.89110738 4.17275043 8 8 C7.67 8.99 7.34 9.98 7 11 C6.0158875 9.73299277 5.03788503 8.4612381 4.0625 7.1875 C3.51722656 6.47980469 2.97195312 5.77210937 2.41015625 5.04296875 C1 3 1 3 0 0 Z " fill="#110F0F" transform="translate(105,27)"/>
<path d="M0 0 C0 0.66 0 1.32 0 2 C0.99 2.33 1.98 2.66 3 3 C0.03 3.66 -2.94 4.32 -6 5 C-6 4.01 -6 3.02 -6 2 C-2.25 0 -2.25 0 0 0 Z " fill="#5A9FC7" transform="translate(103,104)"/>
<path d="M0 0 C4.875 2.875 4.875 2.875 6 4 C6.27314815 9.73611111 6.27314815 9.73611111 6 12 C5.34 12.66 4.68 13.32 4 14 C3.34 13.01 2.68 12.02 2 11 C2.99 11 3.98 11 5 11 C5 9.02 5 7.04 5 5 C4.01 4.67 3.02 4.34 2 4 C2 3.34 2 2.68 2 2 C1.34 2 0.68 2 0 2 C0 1.34 0 0.68 0 0 Z " fill="#599AC1" transform="translate(56,51)"/>
<path d="M0 0 C3.67758005 3.28355362 5.81389118 6.62778237 8 11 C7.67 11.66 7.34 12.32 7 13 C6.34 11.35 5.68 9.7 5 8 C4.34 8 3.68 8 3 8 C0.95830515 5.09451118 0 3.59857954 0 0 Z " fill="#232C31" transform="translate(121,47)"/>
<path d="M0 0 C0.66 0.66 1.32 1.32 2 2 C-0.31 4.31 -2.62 6.62 -5 9 C-5.99 8.67 -6.98 8.34 -8 8 C-5.36 5.36 -2.72 2.72 0 0 Z " fill="#101010" transform="translate(82,30)"/>
<path d="M0 0 C1.98 0.66 3.96 1.32 6 2 C4.8125 3.5 4.8125 3.5 3 5 C0.3125 5.1875 0.3125 5.1875 -2 5 C-1.125 1.125 -1.125 1.125 0 0 Z " fill="#4DABE2" transform="translate(105,101)"/>
<path d="M0 0 C-3.28804981 2.91227269 -5.59885603 4.49701212 -10 5 C-7.00915607 -0.3019506 -6.01775424 -1.42525758 0 0 Z " fill="#4CA9E0" transform="translate(140,99)"/>
<path d="M0 0 C0.8125 1.6875 0.8125 1.6875 1 4 C-1.375 6.625 -1.375 6.625 -4 9 C-4.33 9.66 -4.66 10.32 -5 11 C-6.32 10.67 -7.64 10.34 -9 10 C-8.2575 9.278125 -7.515 8.55625 -6.75 7.8125 C-4.30709485 5.31407427 -2.1318953 2.76356798 0 0 Z " fill="#65B8EA" transform="translate(141,85)"/>
<path d="M0 0 C-0.33 0.99 -0.66 1.98 -1 3 C-2.98 3 -4.96 3 -7 3 C-7 2.01 -7 1.02 -7 0 C-3.86650268 -1.04449911 -3.01031744 -0.93423645 0 0 Z " fill="#3DB4F8" transform="translate(133,100)"/>
<path d="M0 0 C0.99 0.33 1.98 0.66 3 1 C0.36 3.64 -2.28 6.28 -5 9 C-5.66 8.34 -6.32 7.68 -7 7 C-4.66666667 4.66666667 -2.33333333 2.33333333 0 0 Z " fill="#101214" transform="translate(78,46)"/>
<path d="M0 0 C0.66 0 1.32 0 2 0 C3.19287411 3.87684087 4 6.91621923 4 11 C3.34 11 2.68 11 2 11 C2 9.02 2 7.04 2 5 C1.34 5 0.68 5 0 5 C0 3.35 0 1.7 0 0 Z " fill="#56AEE2" transform="translate(35,56)"/>
<path d="M0 0 C2.475 0.495 2.475 0.495 5 1 C4.67 3.31 4.34 5.62 4 8 C3.34 8 2.68 8 2 8 C0.875 3.25 0.875 3.25 2 1 C1.34 0.67 0.68 0.34 0 0 Z " fill="#090C0F" transform="translate(79,110)"/>
<path d="M0 0 C0.33 0.99 0.66 1.98 1 3 C-1.31 4.32 -3.62 5.64 -6 7 C-6 6.01 -6 5.02 -6 4 C-3 1.8125 -3 1.8125 0 0 Z " fill="#0C0C0D" transform="translate(160,107)"/>
<path d="M0 0 C2.4375 0.8125 2.4375 0.8125 5 2 C5.33 2.99 5.66 3.98 6 5 C6.99 5.33 7.98 5.66 9 6 C8.01 6.495 8.01 6.495 7 7 C5.82780457 6.21654285 4.66236332 5.42297164 3.5 4.625 C2.8503125 4.18414062 2.200625 3.74328125 1.53125 3.2890625 C1.0259375 2.86367187 0.520625 2.43828125 0 2 C0 1.34 0 0.68 0 0 Z " fill="#0A0A0B" transform="translate(120,125)"/>
<path d="M0 0 C0.71929687 0.29003906 1.43859375 0.58007812 2.1796875 0.87890625 C2.90414062 1.16636719 3.62859375 1.45382813 4.375 1.75 C4.92929688 1.97816406 5.48359375 2.20632812 6.0546875 2.44140625 C6.0546875 2.77140625 6.0546875 3.10140625 6.0546875 3.44140625 C2.7546875 3.11140625 -0.5453125 2.78140625 -3.9453125 2.44140625 C-3.9453125 1.78140625 -3.9453125 1.12140625 -3.9453125 0.44140625 C-1.9453125 -0.55859375 -1.9453125 -0.55859375 0 0 Z " fill="#47B3F4" transform="translate(71.9453125,103.55859375)"/>
<path d="M0 0 C0.66 0 1.32 0 2 0 C3.5078125 1.75 3.5078125 1.75 5.125 4 C5.66382812 4.7425 6.20265625 5.485 6.7578125 6.25 C7.16773437 6.8275 7.57765625 7.405 8 8 C4.74941413 7.28286044 3.08715849 6.68348949 1 4 C0.3125 1.8125 0.3125 1.8125 0 0 Z " fill="#0D0E11" transform="translate(109,45)"/>
<path d="M0 0 C0.99 0 1.98 0 3 0 C2.875 1.875 2.875 1.875 2 4 C-1.0625 5.25 -1.0625 5.25 -4 6 C-2.1875 3 -2.1875 3 0 0 Z " fill="#74B3D6" transform="translate(94,42)"/>
<path d="M0 0 C2.64 0.66 5.28 1.32 8 2 C8 2.66 8 3.32 8 4 C5.36 3.67 2.72 3.34 0 3 C0 2.01 0 1.02 0 0 Z M-1 3 C-0.67 3.66 -0.34 4.32 0 5 C-0.66 4.67 -1.32 4.34 -2 4 C-1.67 3.67 -1.34 3.34 -1 3 Z " fill="#30A3DA" transform="translate(68,101)"/>
<path d="M0 0 C-3.96 1.98 -3.96 1.98 -8 4 C-8.33 2.68 -8.66 1.36 -9 0 C-5.32431536 -0.91892116 -3.83619425 -0.95904856 0 0 Z " fill="#5FA6CD" transform="translate(141,62)"/>
<path d="M0 0 C0.33 2.31 0.66 4.62 1 7 C0.67 6.01 0.34 5.02 0 4 C-2.50447516 2.78130071 -2.50447516 2.78130071 -5 2 C-2 0 -2 0 0 0 Z " fill="#F1605D" transform="translate(106,79)"/>
<path d="M0 0 C3.0916909 2.52956528 3.90931332 5.22454612 5 9 C4.01 9.495 4.01 9.495 3 10 C2.49596232 8.70990357 1.99690074 7.41786211 1.5 6.125 C1.2215625 5.40570313 0.943125 4.68640625 0.65625 3.9453125 C0 2 0 2 0 0 Z " fill="#D76F74" transform="translate(102,69)"/>
<path d="M0 0 C0.66 0.99 1.32 1.98 2 3 C-1.81489674 4.46726798 -4.29011622 3.43336419 -8 2 C-8 1.67 -8 1.34 -8 1 C-7.05125 1.020625 -6.1025 1.04125 -5.125 1.0625 C-2.09333717 1.22551826 -2.09333717 1.22551826 0 0 Z " fill="#51AFEC" transform="translate(54,56)"/>
<path d="M0 0 C0 1.65 0 3.3 0 5 C-0.99 5.33 -1.98 5.66 -3 6 C-3.66 5.34 -4.32 4.68 -5 4 C-1.125 0 -1.125 0 0 0 Z " fill="#141414" transform="translate(87,119)"/>
<path d="M0 0 C0 0.33 0 0.66 0 1 C-4.455 1.495 -4.455 1.495 -9 2 C-9 1.34 -9 0.68 -9 0 C-5.52176885 -1.15941038 -3.54104422 -0.70820884 0 0 Z " fill="#0A0A0A" transform="translate(52,123)"/>
<path d="M0 0 C1.32 0.33 2.64 0.66 4 1 C4 1.99 4 2.98 4 4 C2.02 4 0.04 4 -2 4 C-2 3.34 -2 2.68 -2 2 C-1.34 2 -0.68 2 0 2 C0 1.34 0 0.68 0 0 Z " fill="#4AB3ED" transform="translate(45,85)"/>
<path d="M0 0 C0.99 0 1.98 0 3 0 C3 2.31 3 4.62 3 7 C2.01 7.495 2.01 7.495 1 8 C0.67 5.36 0.34 2.72 0 0 Z " fill="#4BBEF1" transform="translate(97,50)"/>
</svg>
